<mxfile host="Electron" modified="2024-05-17T01:14:26.453Z" agent="Mozilla/5.0 (Macintosh; Intel Mac OS X 10_15_7) AppleWebKit/537.36 (KHTML, like Gecko) draw.io/21.6.5 Chrome/114.0.5735.243 Electron/25.3.1 Safari/537.36" etag="84igtuXmSxxP3v73Sak0" version="21.6.5" type="device">
  <diagram name="第 1 页" id="t1uiZl6lO2Axm0b_Djr1">
    <mxGraphModel dx="2012" dy="1356" grid="1" gridSize="10" guides="1" tooltips="1" connect="1" arrows="1" fold="1" page="1" pageScale="1" pageWidth="827" pageHeight="1169" math="0" shadow="0">
      <root>
        <mxCell id="0" />
        <mxCell id="1" parent="0" />
        <mxCell id="GpJZRUMAvQBcFQaBfRYF-17" value="" style="rounded=0;whiteSpace=wrap;html=1;" vertex="1" parent="1">
          <mxGeometry x="30" y="620" width="940" height="501" as="geometry" />
        </mxCell>
        <mxCell id="NA6yWug-4LN2GHTLoaWM-3" value="" style="edgeStyle=orthogonalEdgeStyle;rounded=0;orthogonalLoop=1;jettySize=auto;html=1;strokeWidth=3;" parent="1" source="NA6yWug-4LN2GHTLoaWM-1" target="NA6yWug-4LN2GHTLoaWM-2" edge="1">
          <mxGeometry relative="1" as="geometry" />
        </mxCell>
        <mxCell id="NA6yWug-4LN2GHTLoaWM-1" value="&lt;font style=&quot;font-size: 15px;&quot;&gt;Client&lt;/font&gt;" style="rounded=1;whiteSpace=wrap;html=1;fillColor=#fff2cc;strokeColor=#000000;strokeWidth=2;" parent="1" vertex="1">
          <mxGeometry x="230" y="730" width="120" height="60" as="geometry" />
        </mxCell>
        <mxCell id="NA6yWug-4LN2GHTLoaWM-2" value="&lt;font style=&quot;font-size: 15px;&quot;&gt;Service&lt;/font&gt;" style="rounded=1;whiteSpace=wrap;html=1;fillColor=#79D8CE;strokeColor=#000000;strokeWidth=2;" parent="1" vertex="1">
          <mxGeometry x="440" y="730" width="120" height="60" as="geometry" />
        </mxCell>
        <mxCell id="NA6yWug-4LN2GHTLoaWM-7" value="" style="shape=image;verticalLabelPosition=bottom;labelBackgroundColor=default;verticalAlign=top;aspect=fixed;imageAspect=0;image=data:image/png,iVBORw0KGgoAAAANSUhEUgAAAMgAAADICAYAAACtWK6eAAAAAXNSR0IArs4c6QAACwFJREFUeF7tnf152zYQh0F1gqZdQXPYHif2ELaGaDKOnTm8QuNMULMPFFGmZEo8AAcSOLz+J8/TAgfc7+4Vvkiic/yhAApcVKBDGxRAgcsKAAjZgQJXFAAQ0gMFAIQcQIE4BRhB4nSjViMKAEgjgcbNOAUAJE43ajWiAIA0EmjcjFMAQOJ0o1YjCgBII4HGzTgFVAD5+/vr7fu7u+027mboRt+727gu5anVde6lf3c/3h62T3lawKpFBaIB8VD0zj2WBoIkSJvO3f37dfsiKUuZthUIBuTLP69PrnOPtcsGJLVHcJn+iwGxAsaJrL3bMeVaJtFqbUUEyF/fX59rnEqJggIkIplaLXQVkP3iu3fP5sUBEvMhjnXwIiAmp1TXVAKS2BwyXW8SkGZGjvPQAonpZI9xbhKQL99e+xhjJuoAiYkwajnxCRDTC3Khav5Q8efX7Z2wOMUMK3ACSHPrjiuBBRLDWR/g2ikgCVMrn1C+3c65XUD7WYv6x19SDjW9T94fTt2zhqlo40dAYkeP0pMo1q9x1Dh1LzqHs3buA5CY0aOSBS2QZM0h08b3gEQlUCVwDNFT2bquzGfTmbuQc3tAgneuKk0UIFkoqww183sECZleVQrHeCRJfky/cg0M5W92V7rg6ZWR5AgeNc9DYUSH7BlWeQNBgFg7GwCSyrN3ge53QUli8FczeARlJFkgLctpIggQq+cBqZBYG1nLSc/1e9KFLNCtAhK91T2KH5Csn8w5ehAEyNv9VvQGYo6OLmEzdSTxfbT8I7JEDEprA0DOIgIkpaXouv0BkAn9NSBxBjc01k3VdVoHkAu6c+q+TkKW1iqAXIkIkJSWrsv3B0AEmgedFU3ZY7olULnMIgAijEsyJL6dvpyXyYRuV1dss/n94p7WS24AEpACKov3gPYomqjA4Qcp5euZABIYAyAJFKyU4pGwAEhEAIEkQrRSqvRu56dh0ikYgEQGDkgihSulmnDjBEASAgYkCeKVUFUACYAkBgpIEgVcufrcQ6YAohAglQNFhX5gIk6Ba5AASJymk7VUzkoU+4MpuQKXIAEQuYaikky5RDKVWWhiTQIgmULlQfG3/pq9mSuTbmubPX+fB0AWiMhwTfYCTTXdhMYP0vlUC0CaTimbzh9/kCJvYx6PIgBiM0fw6qBA7MbJ8Ho5gJBK5hWI2TgZRhEAMZ8eOOgVCB1JhrUIgJA/zSgQ8okrL4qfZgFIM+mBo6FTLT/NAhDypikFQqZa+9vTQoYd6x+OaypTGnUWQBoNPG7LFAh5sJQRRKYppQwpEAKId5splqHg48q8AgAyrxElGlcgZN3NCNJ4srToPoC0GHV8FisAIGKpKNiiAgDSYtTxWawAgIilomCLCgBIi1HHZ7ECACKWioItKgAgLUYdn8UKAIhYKgq2qACAtBh1fBYrACBiqSjYogIA0mLU8VmsAICIpaJgiwoASItRx2exAgAilqr+gv79Bu+F9Eqx+j1O9wBA0jUs2oL/OkffuZvOuT0c/q937uWPzu0AZT50ADKvUbUl5j5d40H5db+9q9bBBToOIAuIvEYT0tdFGU2uRwdA1sjeBdr889vr83haNduk4JLKWRsGCwCIwaB6l0ICe5QASD5lQ4iOvJNeEUwhgR27xbrkNMghOgJIRYAET7HOfDu/Xqwi11W7CiCqcpZjbG4HS9RTplxBU1VGEFFWlVModRQ5HJrs3h62T+V4tWxPGEGW1Xvx1jQgaXkrGEAWT9nlG9SAxPe6xXUJgCyfr6u0qLIm8T1vbF0CIKuk6zqNSk/X53rX0lYwgMxlg7H/7yH5r3ePQafsExq0si4BEGMASN1hyiVTCkBkOpksBSTzYQWQeY1Ml2DKdT28AGI6/eXOsRU8rRWAyHPIfEmmXJ9DDCDm0z7MQbaCT/UCkAv5s/819edinbsJS7H6S6duAQ8KWNgKBpCzfFabZtTPiZ4HFZ++A8goDbSmF3qZZchSpZAAyCgHtXZyDKW1qitv99tO1eACxgDkIDKjR/5sq/FpYAABkPxkfKzaq3v5CkAOwWNxnp8TRpCRxtbnm/nTyV4LAFI7IP7so3OP9lJzfY9qfYeEKdb5Oci31379dLLXgxpHDx8FAJnIRbZ7FQGt9PxjUABALuTCcJfG+/vHtQGKaWPe1GbjXixcrwAg5lMVB1MUAJAU9ahrXgEAMR9iHExRAEBS1KOueQUAxHyIcTBFAQBJUY+65hUAEPMhxsEUBQAkRT3qmlcAQMyHGAdTFACQFPWoa14BALkQ4v0bhjxmEg2Af9TEV679cRMAOUuBIxg89h4Nx7hi7Z/+AZBRNHkvXYWJSSM1vkDnHQGQUTh5zD0fILXeTAUgh5xg9MgIx8F0jS9NAQiA5CdjaKHCl6cA5BA8vmqSnxNGkJHGtS3KmGIByJQCjCAs0vOTsb892r38ut/eLdKYYiMAwjavYjpdNlXj9Ipt3ol4MtXKwEuFi/NBBUaQC5Bo3CX+sXnz+7GLlv663v3w/r49bPcXEdX6ByBXIqe2s1XxL2itia3VbwCZURJItFKtTjsAIoib1rqk9gf3BFKZKwIgASHVelar1h2dAKnMFAWQwFAy5QoUrPLiABIRQC1Iaj08i5Cs2ioAEhk6vy7R2ApmXRIZgIWqAUii0Frrklrfl0iUr/jqAKIQIq0pF5AoBEPZBIAoCaq5FVzjQ31KMhZnBkCUQ6I15artdQFlGYsxByAZQqEx5WKHK0NgIkwCSIRokioakLAmkSidtwyAZNQ3dSuYUSRjcISmAUQoVEqx2HUJgKSorlMXQHR0nLUSM+UCkFlZsxcAkOwSfzQQvBXMeyQLRme6KQBZOAQh6xK2ehcOzkRzALJSDGanXIweK0XmtFkAWTEMk6NJ73b+6oDarw1YUVbVpgFEVU6MWVMAQKxFFH9UFQAQVTkxZk0BALEWUfxRVQBAVOXEmDUFAMRaRPFHVQEAUZUTY9YUABBrEcUfVQUARFVOjFlTAECsRRR/VBUAEFU5MWZNAQCxFlH8UVUAQFTlxJg1BQDEWkTxR1UBAFGVE2PWFAAQaxHFH1UFAERVToxZUwBArEUUf1QVABBVOTFmTQEAsRZR/FFVAEBU5cSYNQUAxFpE8UdVAQBRlRNj1hQAEGsRxR9VBQBEVU6MWVMAQKxFFH9UFcgGyKZzd3w+UzVWGFtYgdCv8Xd/fX997nt3K+kngEhUokzJCoQA0nXuJQgQ7tcrOfT0TaLA7Bf4R0aCAfEVfn7d3kk6QhkUKFGBkBmTHxC6kCHHO8w0q8Sw0yeJAiGjx95eDCCMIpJQUKZEBUIB8beBdd6RoGHnQNbbw/apRBHoEwpMKRAKh7cRDwiQkIUVKRADx7AhtR9BQtchR224c6+iNGmzq1FwHEYPr9gekKhp1lCxd7v9cMSUq80MLNRr/6PfO/coPeM7cWP0w38EJHoUOVj2i/f+3f3wl1X6/8SJe6GZY7RbPn+9a+/v7rbbuJsoMA7ajK/qPgKSNIoYFR23GlTgbNlwAgiQNJgQuHxUYOoI4xMgqVMt9EaBWhWYOgT/BEjSrlatytBvFLiwIzsJiFcrdnsMpVGgOgWuHFdcBARIqgszHY5QYO7ZwquADNOt6P3kiA5TBQWWUGD/KLtzu7njiFlAhs4y5VoibLSxhAIhD9yKAQGUJUJHGzkVkI4a4z4EAwIoOUOIbW0FPBTepmQ6NdV2NCBjY/vpl+/Ext34f1OO+bUFwl47CgwwDED4f+fWGHPq/A8pVnu+zd7fdAAAAABJRU5ErkJggg==;" parent="1" vertex="1">
          <mxGeometry x="370" y="698" width="40" height="40" as="geometry" />
        </mxCell>
        <mxCell id="NA6yWug-4LN2GHTLoaWM-9" value="&lt;font style=&quot;font-size: 15px;&quot;&gt;Disk&lt;/font&gt;" style="rounded=1;whiteSpace=wrap;html=1;fillColor=#F19B97;strokeColor=#000000;strokeWidth=2;" parent="1" vertex="1">
          <mxGeometry x="640" y="730" width="120" height="60" as="geometry" />
        </mxCell>
        <mxCell id="NA6yWug-4LN2GHTLoaWM-10" value="" style="edgeStyle=orthogonalEdgeStyle;rounded=0;orthogonalLoop=1;jettySize=auto;html=1;strokeWidth=3;" parent="1" edge="1">
          <mxGeometry relative="1" as="geometry">
            <mxPoint x="560" y="762" as="sourcePoint" />
            <mxPoint x="639" y="762" as="targetPoint" />
          </mxGeometry>
        </mxCell>
        <mxCell id="NA6yWug-4LN2GHTLoaWM-12" value="服务交互" style="text;html=1;strokeColor=none;fillColor=none;align=center;verticalAlign=middle;whiteSpace=wrap;rounded=0;fontStyle=1;fontSize=20;fontFamily=Comic Sans MS;" parent="1" vertex="1">
          <mxGeometry x="450" y="650" width="100" height="30" as="geometry" />
        </mxCell>
        <mxCell id="NA6yWug-4LN2GHTLoaWM-13" value="" style="shape=image;verticalLabelPosition=bottom;labelBackgroundColor=default;verticalAlign=top;aspect=fixed;imageAspect=0;image=data:image/png,iVBORw0KGgoAAAANSUhEUgAAAMgAAADICAYAAACtWK6eAAAAAXNSR0IArs4c6QAAEppJREFUeF7tndt15DYShtnjBHZ9NgXF4VE41gQxUhC2nzeCDWHkDPZdLxuAj8cJeHoPWsMWmyJQF1ThB4mal3loggD+qq8uILt1muJfKBAKZBU4hTahQCiQVyAACe8IBQoKBCDhHqFAABI+EAroFIgMotMtRg2iQAAyiKFjmzoFAhCdbjFqEAUCkEEMHdvUKRCA6HSLUYMoEIAMYujYpk6BAESnW4waRIEAZBBDxzZ1CgQgOt1i1CAKBCCDGDq2qVMgANHpFqMGUSAAGcTQsU2dAgGITrcYNYgCAcggho5t6hQIQHS6xahBFGAB8q/fXj5++zZ9PJ+mn5IuP5ympz9+vnseRKPdbDPZqXaxYddbBUlAfvzl5XE6TZ/Xwp+n6fnrw919rUFy45Ox/z6/znuapo/TeXr689Pdo9d8833TflMgSHOmPbYIBss5vffHun8jrVlrAV9EA/Lryzm3Ri9ILhnrPH3ZmvfDabr3inK5YOAJZ3ZOsGN42Ra8LfH0RUBKjjrP5CHkP399+XLJGpl/HpCQe3WKqj8WApDYmsYDPGxrvET32xUB4UY3ayFZTmPssBSUF0sYz0lC6W5+egJr29Iz9nWFCSCvvmPTk4icxtBhWVAaQ8INQGiXsbIteh+a+c0AsYJEBIihw7IyyFtdaXJgsBdArGyrcVD0GFNA5s3U9AhiQIwgEQFilDH3BMiokFQ36R6NNLvcWU5eWW5JAbFwGFUwuBx7n/99Pp/+ZxpdN47yt+4/WrnlBkgSV5tJVIBUZhJtNK9xGC0gNdrmoJKspWbPplA3uJkrIFpDqgGpgEQLSE0mkTjlli9oA1AJkvRwtnTE/taG2RzKNPDxqimqHhRyZ5YasgoQJSQ1gNRAgtgrZTdJuSm1LTV3b583AUSaSSQGygoq7ElqAdFCUg2IMiBQjiixwZEhqQIk1aJJaE5KlkAiMU7R0AJILADRQGICSEBC8a7+vBqQ9MKiyKEZTks663l62nqBclMFxnzzuNI+UjDgBgLJS46lvV7mPE+/e+yV6zES2x4xk5CAUAL9+XB3uQd13Y1BGE5bcpw0JwnRckLGfPPl2Yh+np4+fJiecy9R1jTR1BvTXnsNSGgFzABJU1kbMne/OVJZz5f2kD1ZWkAmCQbcqJrbyxyAPPZKu8fbFR57lsyPutYUkFaQLJ3Ow3E2IVllIQ+H2drLDIiHtlKn89izdA2trycBoRxwacBrmZL5kpW2R1ivYR2VqTXeVlu88/s1JFsPxzwcZr2Xtb6SvVq/fSwtpbnZs7XTS+arBiQngrUhb+630VNIHrpxnwQv75kb4wHJ8p4tApDEYUaDxA0Qj5LgCkmm6faEpASVJyStAlBAsq2AKyBukEzTlPt+ugckM5hb0ZxzRLyWnlt6JPBK34m3ztJSSCTzc/csXYP39SQgpMMxjlAlQlrUzeSaF6pyy620B+pHIySZhLvPtJfSd/Bba7t2SPT8hwDEI5NQwnhAQs2J2CdqzqUWR4akSQbxOt2iHDYgySjEyPqUtqNkkqaAIKKdBJK0PqtaGRFVJXNyS0sJKJL5uSWmZH6Pa0lALk5d+mkaRTRqLeT8I3Tcd6n2DIkkIAQkNFLVgGhFbg0J6vwesc+AhHZ87hUwQKTllhbEtRCSk6bIJFw3en8dIjDoV5sfyQKEeg285jd6JUIGJDIXiEwi02vr6mpA0k1LD9A4S0QYMjLJe8tYBaAjHQF3AUgSNCDZCCWKA5CtgITQ9iiQdAPIHiCxOpqUlJVWc0ohsf6zD4g9c6oX6hoWINTmakus5SKlhqzpf+Z5JeWWlcNSmt4YzjCTcH/Wx/KZ0LwXxJ4pAKjPTQCxOu2ZF4uABGE8xJyo4+69QtIlIJpyy6IkQDgsYs6AhMobb593C8gMSeuSAOGwkjktT5okpaV1lSDZs1VZy8dCCAhZ8hjVyLkNtDYkwnikxgtxAhKNq+vGsDIIaTxnQBAlQUCy7VCjZZLdABKQvHdYVCaxLnkQwYibT1iApJtZv9HLXeD6uii3bhUJSLSexBtnAoilkTjLDkj8IEFGc+TcOb/bJSDScsuiJEAYj+z9Vo27xVH3pVow/l0zTtBDPgMrrW+3gAQkvk10QPKqLxsQz1feJRFmfW1rQ7aeb95v67JSnElqjFg51rPENwEk7c/yfSypXhKntVinZD6L8i4gYXiE06OGQwAiinZGQvYOiWVUFe2V4ctulxjZdrk+NiCUSBaRuVY4ao3p/ijHsdSHW25ZPtTjaFtrv+rxPQNiaYwaoTiGtHRW7kmT5ZzsAwpjh+FoW2O72rGWwW9ei1kG6QUQjvNYOysHEg99yExiDIiolK31dsX4AIQpGuU41oBwHMcDkMu8xr9ZxpGY0pdzD49rAhCmqlQpMAogHg7DCQbp5I5pKvllp+lzaZC1bdklFllGOKRzuXqvIyhAPKI5Sp9SBkEBYu2kSz+gspf13AGIlsLVuADkTRCPADTfnQp+AQjDoSkRPQyIAqR1REVlaC4g1rZlZxBUQ8jg4d0lKGftsWG2jqgBSMEjEfXuUQDx6gcQGQQVgBBwmmUQLwcIQMoKUOWkRwZBAtJ67kMCgioHERmWAsS6Jk/atnbSZYhoPbcIEEQ612QQFCCIrwQgAEHpi4BzSEC8ykFEAOkREC99rydZDd8eCEC0KWpjHAKQ1iUHx0mRgFjPLQKEilYeDaHWf3ssdzz0CUBuPaRrQDwaQg9A0j09nBURQFCAILIlInuZZpAA5OVxKrxM56XPKA8oZ0BawnlYQBDRnJozANHWA7fjugUElc41slLOiiixEIBY1+Tcd6I89O0+gxwJEA9nRekzygNKBJyiEgvlAB4Z5EiA9Hhi56EvFxDLuUWAIJ+gSiGhSixLEee1oQJIy5oc4aRr27e07WEBQTnrKCdKKH0vQZr47WDL4GcKiFdDKM0eiHd2EGf03Gju0TAjAWk5dwCioa8wpseGOQDRG1kMCKIh1G4PUe70CIhlyYHut1pXB6aAeL3C4QGIVzk4UsOMCECcUtbyB8MDEC19mXEByKswXgGIA4jl3GJAqBMEj3pX68OIcgcBSMumdWkLhL4BiJaGjXEIZ0UEEBQgyH601dzmGcSjIdQy0yMgHvr0CIh3P9rKtgGIlr7MOCqDeAByeXjW8Guo89ZbOemW1K3mPjQglLN69EvUnAhALJvWpbO2ctItQCidrWwrBgSVzjWBnhLRw1lR+iAaZkpfKyfVAGJl2wDk57tnDXy5MQHImzJWThqAWHro4l5UhPMwIAoQRLmD0Pd6zNvohUVxBkE1hBqGUM46SsOMBKSVbc0B8WoIA5CyAogM0spJt3beau4A5NPdowa+0phRGuZWThqAWHvo9/uhDNgjIEfqtzivm1i9sKjKIIh0rmWot37AqwRF9QMIfTmAWOk8NCBWIq7hRQSQHgHx0jcA0aaLjXGIcgcByEjlZPeAUNHK8wmqlJ0A5LtiTn+mG6Hv7AMtApGqxKIA8WgIpWC0FHG9NkofjwCCyiCtXjvfsn8AoqViMa6FiFJAPAJIj4AkXTyCQcvgFxnk4U6lQfE5SKPXIN6BOdgr7y0ytco5UNFKk1BaiNhDBklrQPQDCH2vTXqDQDQ8IEcqd3oExEPfAESTKjJjqAjnYUBUhg1Abp3AwraRQU7T/R8H+U7IKAcSMwYtApEKEKretXoPxiKRtBBxa52IVzACkJUlDJ79uADi/YqBBJweAfHSBwEISt/kAy3mDkAMoow0g3gBQvVbHs8kWjhp8Ujd+Wj78ICgysFRGuaeAbEIRGpAEOlcUlotr0U4K0IfKoNYnOpIs6V3P+pt2wBkmp6/Ptzda+HLjQtAXpWxiOLaEsti7gDkQICgyh3vKF4CxDsQqQGh0rlHQ6iN8og3ThH6BCDvPaTWD90A8ap3NZB4R5nNurzBe0LreVGAIPTlvm4SgDCIQRiQyiBeAWSUB5RcQGp1HiKDUM5aG2V6ySDUkbZF07q1V0QA6h4QVDpnJIx3lwQgvidKCH0DEA0JmTGUAWvT8Na0qACCOFFC6MsFpPY5jLrEQjmAhhuEAVH69Hhi5xGAZj/w1lkNCFXv1pKrASE3JgB5U+ZI/Vba1W4B8WoINeB4i5gF0/lFul4aZpS+1zLLUWe3DBKAjPMd8Z4BqfXDACSFoXjlXZOYr2MCkIx8iIZQa0nEA7SRTpQQ+nJKLGgGQT4gkoKCcFaEPogDCfSBjafOVSWW58KkAFDXByCvCnkduSL0nW3u6YdVgFDRyqu2p2DY+hxhQE/D5TRA9QMIffcPiGMDLIUE4axUAPF4JoECBNmPeursm0FmL3Y6JZJA0iMgHuVOj4AkO3kEg2uT7vjVgipAyOZs6cFgSEYBhLSJkx0Q+u4DEILemyjvZBxOJvFMw7n5qTk9MggFSO2xp3avw2aQi0F2AAm1Rg9nRZU7iIaZ0tcTEE+dq0ssbppDZxLKgAEIJw/nr0HoO69mF4D0nkkQBvQ0XMmdEf0AQt/dASKFxKse3nIelLMiXsEYDRCq76p5HmdWYi2dkoomt4dbPj/ctoYkAHlTxKMfQOl7LfELr7zXBGIXQNKiScEWHlyzAW7lTK7H6YRtlIYZpe9uAekREkS50yMgRzqQ2DUgvUGCAATxCgZV4noA4tkHcKoEr77LrcRabopMv43KLUQ09zJcyWl6BMS7jPbSuQkgvWSSUQAhA9KB+q05UOweEA0kP5ymJ8s/sNljuXOkEyVEAOI+qNbq3CyDLB/q/H2ePp+m6SOntrSsl72iTE25ozVcaU5UBkHoywVE60fNAeGmxKUDaDe3diKEAXvsB2oenJXAROh7WEDSxihBrSGh5vOI5gGI7wNKLiDaoADLIIhMQjnrKIB4nSgh9F2W7t/O05dshlMeTMABaZlJKANalXKiI26l4aj+DdEwI/QdApBWkCAM2GPDjMogHgFoGECkkGhqygDEtx9A6LvMpB5vSnRRYi03STXSN6WFsDxBRXMPw1ElFqWjR7+F0vfaqDu80dsdIGmzVCTSQoIyIKIfCEBuQ4i2rOwSEC9I9g5IWj/3zQIqyHAziGROlL6cE9HDAeIFiUW5kxwhvQ3w9eHunip1LvswSv3pPtxGlwJEdJ/0u1af7h6pvfYMSFo7Nygs99ltBmE/AFruhtGTWDjr7AjcqGRV7sz34Ti3KSCn6TP3UMQiAFEg5j630nlXgFhnEgtAllmBA4mV4Zb3oSAxByRtulEA0gJC7fmQGcQ6k1gD8uo35e/VWwGydoASJFblzrv7EJBY6auBhAKECipbc3ZfYt2ccxv8QJ2Zs676ihIklOG4kW3zPhmHdQOEyCQBiAZtwzGUs1FHwFaAbN0nBwm1Zm5ky95nAxIrQLKHDBkwrfTVuIyVzrvrQdZiUUKUILEyYO4+W5BQ6+UCUnT6DYe1apiz99mY00pfDSCWQWGef1cllkW5RTlrVbnzfYEJkuW3Iak5TQDZKH2syh3JNzEDEA3aTmMox9vKJNQYrrNS90lzz/eyjGzFrLCCpAUg60MKShduANK4jKXOu88g2tOty7h0rp/5ZwnIDEn63+q7CiQgC0isAKGcfgkJdS1XXw0g2X5pvhnjmHo9725LLHW5RSjPNSAZrZbznKenEpSc5wvXgFB4Kr/OmOfT9FPpu//caE45/Zv/Tc+n8/S7RQDyAIQ6jt+a8xCAXCKH5Ai4oD4XEMs5JYCIwCS8jAtIug3VW3AdWqIv9543wdLotZ7DlFhLcUycR5iGTcAUzmmyT8W7SSaQCPcqhcSqrDwkIGlT1c6jMGAtJJrUX71PBSAmmUShrwQSCmJJ1kzzHqbEMsskSgPWQKIBxCIYaMsdygmLDq3UlwsJtbYA5LuS6ghbYUAtJFpAaiHRAlKVSSr05UASgHBUqoCkxllrGndpZLPImDWAqCE5T3+dT9N/BWYUXUr9YqdU50OWWDXOUwuIFhKp4dZeo8qYBtGcitgi725wsTQoHB4QaRliAYgGklpApPu8+KIBIOpM0gCGrSkCkILwnGhnBYgUEgtAxJAYAbInSAIQIjJRkEgFpAIht3G3AkQCifVeKW0prVp8Lt3zECXWWnjJq+oWRqMgscxa83o5PYkllPO8PUOi0XlIQLbKH414EnhKkEijGnde6fdHuPelrusVEo3OwwKyjLTc35qiHIP6fP65oPkocv29EWq85vP1nJbNeWk9Fzi/Tf+ZTtM/NOu2HFOj8/CAWBqi53tJfgCu5320XlsA0lrxmG9XCgQguzJXLLa1AgFIa8Vjvl0pEIDsylyx2NYKBCCtFY/5dqVAALIrc8ViWysQgLRWPObblQIByK7MFYttrUAA0lrxmG9XCvwfwqVfIoCWV1sAAAAASUVORK5CYII=;" parent="1" vertex="1">
          <mxGeometry x="580" y="698" width="42" height="42" as="geometry" />
        </mxCell>
        <mxCell id="ZMZ1Rlxz1blrrAfU0wrr-1" value="&lt;font style=&quot;font-size: 15px;&quot;&gt;1&lt;/font&gt;" style="rounded=1;whiteSpace=wrap;html=1;fillColor=#79D8CE;strokeColor=#000000;strokeWidth=2;" parent="1" vertex="1">
          <mxGeometry x="150" y="1390" width="80" height="70" as="geometry" />
        </mxCell>
        <mxCell id="ZMZ1Rlxz1blrrAfU0wrr-6" value="&lt;span style=&quot;font-size: 15px;&quot;&gt;0&lt;/span&gt;" style="rounded=1;whiteSpace=wrap;html=1;fillColor=#fff2cc;strokeColor=#000000;strokeWidth=2;" parent="1" vertex="1">
          <mxGeometry x="240" y="1390" width="80" height="70" as="geometry" />
        </mxCell>
        <mxCell id="ZMZ1Rlxz1blrrAfU0wrr-7" value="&lt;span style=&quot;font-size: 15px;&quot;&gt;1&lt;/span&gt;" style="rounded=1;whiteSpace=wrap;html=1;fillColor=#F19B97;strokeColor=#b85450;strokeWidth=2;" parent="1" vertex="1">
          <mxGeometry x="334" y="1390" width="80" height="70" as="geometry" />
        </mxCell>
        <mxCell id="ZMZ1Rlxz1blrrAfU0wrr-9" value="&lt;span style=&quot;font-size: 15px;&quot;&gt;0&lt;/span&gt;" style="rounded=1;whiteSpace=wrap;html=1;fillColor=#fff2cc;strokeColor=#000000;strokeWidth=2;" parent="1" vertex="1">
          <mxGeometry x="240" y="1480" width="80" height="70" as="geometry" />
        </mxCell>
        <mxCell id="ZMZ1Rlxz1blrrAfU0wrr-10" value="&lt;span style=&quot;font-size: 15px;&quot;&gt;0&lt;/span&gt;" style="rounded=1;whiteSpace=wrap;html=1;fillColor=#fff2cc;strokeColor=#000000;strokeWidth=2;" parent="1" vertex="1">
          <mxGeometry x="334" y="1480" width="80" height="70" as="geometry" />
        </mxCell>
        <mxCell id="ZMZ1Rlxz1blrrAfU0wrr-11" value="&lt;font style=&quot;font-size: 15px;&quot;&gt;1&lt;/font&gt;" style="rounded=1;whiteSpace=wrap;html=1;fillColor=#F19B97;strokeColor=#b85450;strokeWidth=2;" parent="1" vertex="1">
          <mxGeometry x="150" y="1480" width="80" height="70" as="geometry" />
        </mxCell>
        <mxCell id="GpJZRUMAvQBcFQaBfRYF-6" value="" style="rounded=1;whiteSpace=wrap;html=1;fillColor=#F19B97;strokeColor=#000000;strokeWidth=2;" vertex="1" parent="1">
          <mxGeometry x="220" y="890" width="560" height="60" as="geometry" />
        </mxCell>
        <mxCell id="GpJZRUMAvQBcFQaBfRYF-7" value="&lt;font style=&quot;font-size: 15px;&quot;&gt;Data&lt;/font&gt;" style="rounded=1;whiteSpace=wrap;html=1;fillColor=#fff2cc;strokeColor=#000000;strokeWidth=2;" vertex="1" parent="1">
          <mxGeometry x="220" y="920" width="180" height="30" as="geometry" />
        </mxCell>
        <mxCell id="GpJZRUMAvQBcFQaBfRYF-8" value="Disk" style="text;html=1;strokeColor=none;fillColor=none;align=center;verticalAlign=middle;whiteSpace=wrap;rounded=0;fontSize=15;fontStyle=1" vertex="1" parent="1">
          <mxGeometry x="470" y="890" width="60" height="30" as="geometry" />
        </mxCell>
        <mxCell id="GpJZRUMAvQBcFQaBfRYF-9" value="&lt;font style=&quot;font-size: 15px;&quot;&gt;Data&lt;/font&gt;" style="rounded=1;whiteSpace=wrap;html=1;fillColor=#fff2cc;strokeColor=#000000;strokeWidth=2;" vertex="1" parent="1">
          <mxGeometry x="410" y="920" width="180" height="30" as="geometry" />
        </mxCell>
        <mxCell id="GpJZRUMAvQBcFQaBfRYF-10" value="&lt;font style=&quot;font-size: 15px;&quot;&gt;Data&lt;/font&gt;" style="rounded=1;whiteSpace=wrap;html=1;fillColor=#fff2cc;strokeColor=#000000;strokeWidth=2;" vertex="1" parent="1">
          <mxGeometry x="600" y="920" width="180" height="30" as="geometry" />
        </mxCell>
        <mxCell id="GpJZRUMAvQBcFQaBfRYF-11" value="" style="rounded=1;whiteSpace=wrap;html=1;fillColor=#F19B97;strokeColor=#000000;strokeWidth=2;" vertex="1" parent="1">
          <mxGeometry x="220" y="1020" width="560" height="60" as="geometry" />
        </mxCell>
        <mxCell id="GpJZRUMAvQBcFQaBfRYF-12" value="&lt;font style=&quot;font-size: 15px;&quot;&gt;Data&lt;/font&gt;" style="rounded=1;whiteSpace=wrap;html=1;fillColor=#fff2cc;strokeColor=#000000;strokeWidth=2;" vertex="1" parent="1">
          <mxGeometry x="220" y="1050" width="420" height="30" as="geometry" />
        </mxCell>
        <mxCell id="GpJZRUMAvQBcFQaBfRYF-13" value="Disk" style="text;html=1;strokeColor=none;fillColor=none;align=center;verticalAlign=middle;whiteSpace=wrap;rounded=0;fontSize=15;fontStyle=1" vertex="1" parent="1">
          <mxGeometry x="470" y="1020" width="60" height="30" as="geometry" />
        </mxCell>
        <mxCell id="GpJZRUMAvQBcFQaBfRYF-15" value="&lt;font style=&quot;font-size: 15px;&quot;&gt;Check Code&lt;/font&gt;" style="rounded=1;whiteSpace=wrap;html=1;fillColor=#79D8CE;strokeColor=#000000;strokeWidth=2;" vertex="1" parent="1">
          <mxGeometry x="640" y="1050" width="140" height="30" as="geometry" />
        </mxCell>
        <mxCell id="GpJZRUMAvQBcFQaBfRYF-19" value="&lt;span style=&quot;font-size: 15px;&quot;&gt;1&lt;/span&gt;" style="rounded=1;whiteSpace=wrap;html=1;fillColor=#F19B97;strokeColor=#b85450;strokeWidth=2;" vertex="1" parent="1">
          <mxGeometry x="430" y="1390" width="80" height="70" as="geometry" />
        </mxCell>
        <mxCell id="GpJZRUMAvQBcFQaBfRYF-20" value="&lt;span style=&quot;font-size: 15px;&quot;&gt;0&lt;/span&gt;" style="rounded=1;whiteSpace=wrap;html=1;fillColor=#fff2cc;strokeColor=#000000;strokeWidth=2;" vertex="1" parent="1">
          <mxGeometry x="430" y="1480" width="80" height="70" as="geometry" />
        </mxCell>
        <mxCell id="GpJZRUMAvQBcFQaBfRYF-21" value="&lt;span style=&quot;font-size: 15px;&quot;&gt;0&lt;/span&gt;" style="rounded=1;whiteSpace=wrap;html=1;fillColor=#fff2cc;strokeColor=#000000;strokeWidth=2;" vertex="1" parent="1">
          <mxGeometry x="240" y="1570" width="80" height="70" as="geometry" />
        </mxCell>
        <mxCell id="GpJZRUMAvQBcFQaBfRYF-23" value="&lt;span style=&quot;font-size: 15px;&quot;&gt;1&lt;/span&gt;" style="rounded=1;whiteSpace=wrap;html=1;fillColor=#F19B97;strokeColor=#b85450;strokeWidth=2;" vertex="1" parent="1">
          <mxGeometry x="334" y="1570" width="80" height="70" as="geometry" />
        </mxCell>
        <mxCell id="GpJZRUMAvQBcFQaBfRYF-24" value="&lt;span style=&quot;font-size: 15px;&quot;&gt;0&lt;/span&gt;" style="rounded=1;whiteSpace=wrap;html=1;fillColor=#fff2cc;strokeColor=#000000;strokeWidth=2;" vertex="1" parent="1">
          <mxGeometry x="430" y="1570" width="80" height="70" as="geometry" />
        </mxCell>
        <mxCell id="GpJZRUMAvQBcFQaBfRYF-28" value="&lt;span style=&quot;font-size: 15px;&quot;&gt;0&lt;/span&gt;" style="rounded=1;whiteSpace=wrap;html=1;fillColor=#fff2cc;strokeColor=#000000;strokeWidth=2;" vertex="1" parent="1">
          <mxGeometry x="430" y="1660" width="80" height="70" as="geometry" />
        </mxCell>
        <mxCell id="GpJZRUMAvQBcFQaBfRYF-30" value="&lt;font style=&quot;font-size: 15px;&quot;&gt;1&lt;/font&gt;" style="rounded=1;whiteSpace=wrap;html=1;fillColor=#F19B97;strokeColor=#b85450;strokeWidth=2;" vertex="1" parent="1">
          <mxGeometry x="150" y="1570" width="80" height="70" as="geometry" />
        </mxCell>
        <mxCell id="GpJZRUMAvQBcFQaBfRYF-31" value="&lt;span style=&quot;font-size: 15px;&quot;&gt;0&lt;/span&gt;" style="rounded=1;whiteSpace=wrap;html=1;fillColor=#fff2cc;strokeColor=#000000;strokeWidth=2;" vertex="1" parent="1">
          <mxGeometry x="150" y="1660" width="80" height="70" as="geometry" />
        </mxCell>
        <mxCell id="GpJZRUMAvQBcFQaBfRYF-32" value="&lt;span style=&quot;font-size: 15px;&quot;&gt;1&lt;/span&gt;" style="rounded=1;whiteSpace=wrap;html=1;fillColor=#F19B97;strokeColor=#b85450;strokeWidth=2;" vertex="1" parent="1">
          <mxGeometry x="334" y="1660" width="80" height="70" as="geometry" />
        </mxCell>
        <mxCell id="GpJZRUMAvQBcFQaBfRYF-34" value="&lt;font style=&quot;font-size: 15px;&quot;&gt;0&lt;/font&gt;" style="rounded=1;whiteSpace=wrap;html=1;fillColor=#79D8CE;strokeColor=#000000;strokeWidth=2;" vertex="1" parent="1">
          <mxGeometry x="680" y="1390" width="80" height="70" as="geometry" />
        </mxCell>
        <mxCell id="GpJZRUMAvQBcFQaBfRYF-35" value="&lt;span style=&quot;font-size: 15px;&quot;&gt;0&lt;/span&gt;" style="rounded=1;whiteSpace=wrap;html=1;fillColor=#fff2cc;strokeColor=#000000;strokeWidth=2;" vertex="1" parent="1">
          <mxGeometry x="770" y="1390" width="80" height="70" as="geometry" />
        </mxCell>
        <mxCell id="GpJZRUMAvQBcFQaBfRYF-36" value="&lt;span style=&quot;font-size: 15px;&quot;&gt;1&lt;/span&gt;" style="rounded=1;whiteSpace=wrap;html=1;fillColor=#F19B97;strokeColor=#b85450;strokeWidth=2;" vertex="1" parent="1">
          <mxGeometry x="864" y="1390" width="80" height="70" as="geometry" />
        </mxCell>
        <mxCell id="GpJZRUMAvQBcFQaBfRYF-37" value="&lt;span style=&quot;font-size: 15px;&quot;&gt;0&lt;/span&gt;" style="rounded=1;whiteSpace=wrap;html=1;fillColor=#fff2cc;strokeColor=#000000;strokeWidth=2;" vertex="1" parent="1">
          <mxGeometry x="770" y="1480" width="80" height="70" as="geometry" />
        </mxCell>
        <mxCell id="GpJZRUMAvQBcFQaBfRYF-38" value="&lt;span style=&quot;font-size: 15px;&quot;&gt;0&lt;/span&gt;" style="rounded=1;whiteSpace=wrap;html=1;fillColor=#fff2cc;strokeColor=#000000;strokeWidth=2;" vertex="1" parent="1">
          <mxGeometry x="864" y="1480" width="80" height="70" as="geometry" />
        </mxCell>
        <mxCell id="GpJZRUMAvQBcFQaBfRYF-39" value="&lt;font style=&quot;font-size: 15px;&quot;&gt;1&lt;/font&gt;" style="rounded=1;whiteSpace=wrap;html=1;fillColor=#F19B97;strokeColor=#b85450;strokeWidth=2;" vertex="1" parent="1">
          <mxGeometry x="680" y="1480" width="80" height="70" as="geometry" />
        </mxCell>
        <mxCell id="GpJZRUMAvQBcFQaBfRYF-40" value="&lt;span style=&quot;font-size: 15px;&quot;&gt;1&lt;/span&gt;" style="rounded=1;whiteSpace=wrap;html=1;fillColor=#F19B97;strokeColor=#b85450;strokeWidth=2;" vertex="1" parent="1">
          <mxGeometry x="960" y="1390" width="80" height="70" as="geometry" />
        </mxCell>
        <mxCell id="GpJZRUMAvQBcFQaBfRYF-41" value="&lt;span style=&quot;font-size: 15px;&quot;&gt;0&lt;/span&gt;" style="rounded=1;whiteSpace=wrap;html=1;fillColor=#fff2cc;strokeColor=#000000;strokeWidth=2;" vertex="1" parent="1">
          <mxGeometry x="960" y="1480" width="80" height="70" as="geometry" />
        </mxCell>
        <mxCell id="GpJZRUMAvQBcFQaBfRYF-42" value="&lt;span style=&quot;font-size: 15px;&quot;&gt;0&lt;/span&gt;" style="rounded=1;whiteSpace=wrap;html=1;fillColor=#fff2cc;strokeColor=#000000;strokeWidth=2;" vertex="1" parent="1">
          <mxGeometry x="770" y="1570" width="80" height="70" as="geometry" />
        </mxCell>
        <mxCell id="GpJZRUMAvQBcFQaBfRYF-43" value="&lt;span style=&quot;font-size: 15px;&quot;&gt;1&lt;/span&gt;" style="rounded=1;whiteSpace=wrap;html=1;fillColor=#F19B97;strokeColor=#b85450;strokeWidth=2;" vertex="1" parent="1">
          <mxGeometry x="864" y="1570" width="80" height="70" as="geometry" />
        </mxCell>
        <mxCell id="GpJZRUMAvQBcFQaBfRYF-44" value="&lt;span style=&quot;font-size: 15px;&quot;&gt;0&lt;/span&gt;" style="rounded=1;whiteSpace=wrap;html=1;fillColor=#fff2cc;strokeColor=#000000;strokeWidth=2;" vertex="1" parent="1">
          <mxGeometry x="960" y="1570" width="80" height="70" as="geometry" />
        </mxCell>
        <mxCell id="GpJZRUMAvQBcFQaBfRYF-45" value="&lt;span style=&quot;font-size: 15px;&quot;&gt;0&lt;/span&gt;" style="rounded=1;whiteSpace=wrap;html=1;fillColor=#fff2cc;strokeColor=#000000;strokeWidth=2;" vertex="1" parent="1">
          <mxGeometry x="770" y="1660" width="80" height="70" as="geometry" />
        </mxCell>
        <mxCell id="GpJZRUMAvQBcFQaBfRYF-46" value="&lt;span style=&quot;font-size: 15px;&quot;&gt;0&lt;/span&gt;" style="rounded=1;whiteSpace=wrap;html=1;fillColor=#fff2cc;strokeColor=#000000;strokeWidth=2;" vertex="1" parent="1">
          <mxGeometry x="960" y="1660" width="80" height="70" as="geometry" />
        </mxCell>
        <mxCell id="GpJZRUMAvQBcFQaBfRYF-47" value="&lt;font style=&quot;font-size: 15px;&quot;&gt;1&lt;/font&gt;" style="rounded=1;whiteSpace=wrap;html=1;fillColor=#F19B97;strokeColor=#b85450;strokeWidth=2;" vertex="1" parent="1">
          <mxGeometry x="680" y="1570" width="80" height="70" as="geometry" />
        </mxCell>
        <mxCell id="GpJZRUMAvQBcFQaBfRYF-48" value="&lt;span style=&quot;font-size: 15px;&quot;&gt;0&lt;/span&gt;" style="rounded=1;whiteSpace=wrap;html=1;fillColor=#fff2cc;strokeColor=#000000;strokeWidth=2;" vertex="1" parent="1">
          <mxGeometry x="680" y="1660" width="80" height="70" as="geometry" />
        </mxCell>
        <mxCell id="GpJZRUMAvQBcFQaBfRYF-49" value="&lt;span style=&quot;font-size: 15px;&quot;&gt;1&lt;/span&gt;" style="rounded=1;whiteSpace=wrap;html=1;fillColor=#F19B97;strokeColor=#b85450;strokeWidth=2;" vertex="1" parent="1">
          <mxGeometry x="864" y="1660" width="80" height="70" as="geometry" />
        </mxCell>
        <mxCell id="GpJZRUMAvQBcFQaBfRYF-50" value="&lt;span style=&quot;font-size: 15px;&quot;&gt;1&lt;/span&gt;" style="rounded=1;whiteSpace=wrap;html=1;fillColor=#F19B97;strokeColor=#b85450;strokeWidth=2;" vertex="1" parent="1">
          <mxGeometry x="240" y="1660" width="80" height="70" as="geometry" />
        </mxCell>
        <mxCell id="GpJZRUMAvQBcFQaBfRYF-68" value="&lt;font style=&quot;font-size: 15px;&quot;&gt;1&lt;/font&gt;" style="rounded=1;whiteSpace=wrap;html=1;fillColor=#79D8CE;strokeColor=#000000;strokeWidth=2;" vertex="1" parent="1">
          <mxGeometry x="150" y="1830" width="80" height="70" as="geometry" />
        </mxCell>
        <mxCell id="GpJZRUMAvQBcFQaBfRYF-75" value="&lt;span style=&quot;font-size: 15px;&quot;&gt;0&lt;/span&gt;" style="rounded=1;whiteSpace=wrap;html=1;fillColor=#fff2cc;strokeColor=#000000;strokeWidth=2;" vertex="1" parent="1">
          <mxGeometry x="430" y="1920" width="80" height="70" as="geometry" />
        </mxCell>
        <mxCell id="GpJZRUMAvQBcFQaBfRYF-78" value="&lt;span style=&quot;font-size: 15px;&quot;&gt;0&lt;/span&gt;" style="rounded=1;whiteSpace=wrap;html=1;fillColor=#fff2cc;strokeColor=#000000;strokeWidth=2;" vertex="1" parent="1">
          <mxGeometry x="430" y="2010" width="80" height="70" as="geometry" />
        </mxCell>
        <mxCell id="GpJZRUMAvQBcFQaBfRYF-79" value="&lt;span style=&quot;font-size: 15px;&quot;&gt;0&lt;/span&gt;" style="rounded=1;whiteSpace=wrap;html=1;fillColor=#fff2cc;strokeColor=#000000;strokeWidth=2;" vertex="1" parent="1">
          <mxGeometry x="430" y="2100" width="80" height="70" as="geometry" />
        </mxCell>
        <mxCell id="GpJZRUMAvQBcFQaBfRYF-86" value="&lt;font style=&quot;font-size: 15px;&quot;&gt;1&lt;/font&gt;" style="rounded=1;whiteSpace=wrap;html=1;fillColor=#79D8CE;strokeColor=#000000;strokeWidth=2;" vertex="1" parent="1">
          <mxGeometry x="150" y="1920" width="80" height="70" as="geometry" />
        </mxCell>
        <mxCell id="GpJZRUMAvQBcFQaBfRYF-87" value="&lt;font style=&quot;font-size: 15px;&quot;&gt;1&lt;/font&gt;" style="rounded=1;whiteSpace=wrap;html=1;fillColor=#79D8CE;strokeColor=#000000;strokeWidth=2;" vertex="1" parent="1">
          <mxGeometry x="150" y="2010" width="80" height="70" as="geometry" />
        </mxCell>
        <mxCell id="GpJZRUMAvQBcFQaBfRYF-88" value="&lt;span style=&quot;font-size: 15px;&quot;&gt;0&lt;/span&gt;" style="rounded=1;whiteSpace=wrap;html=1;fillColor=#79D8CE;strokeColor=#000000;strokeWidth=2;" vertex="1" parent="1">
          <mxGeometry x="150" y="2100" width="80" height="70" as="geometry" />
        </mxCell>
        <mxCell id="GpJZRUMAvQBcFQaBfRYF-89" value="&lt;span style=&quot;font-size: 15px;&quot;&gt;0&lt;/span&gt;" style="rounded=1;whiteSpace=wrap;html=1;fillColor=#F19B97;strokeColor=#000000;strokeWidth=2;" vertex="1" parent="1">
          <mxGeometry x="240" y="1830" width="80" height="70" as="geometry" />
        </mxCell>
        <mxCell id="GpJZRUMAvQBcFQaBfRYF-90" value="&lt;font style=&quot;font-size: 15px;&quot;&gt;0&lt;/font&gt;" style="rounded=1;whiteSpace=wrap;html=1;fillColor=#79D8CE;strokeColor=#000000;strokeWidth=2;" vertex="1" parent="1">
          <mxGeometry x="240" y="1920" width="80" height="70" as="geometry" />
        </mxCell>
        <mxCell id="GpJZRUMAvQBcFQaBfRYF-91" value="&lt;font style=&quot;font-size: 15px;&quot;&gt;0&lt;/font&gt;" style="rounded=1;whiteSpace=wrap;html=1;fillColor=#79D8CE;strokeColor=#000000;strokeWidth=2;" vertex="1" parent="1">
          <mxGeometry x="240" y="2010" width="80" height="70" as="geometry" />
        </mxCell>
        <mxCell id="GpJZRUMAvQBcFQaBfRYF-92" value="&lt;font style=&quot;font-size: 15px;&quot;&gt;1&lt;/font&gt;" style="rounded=1;whiteSpace=wrap;html=1;fillColor=#79D8CE;strokeColor=#000000;strokeWidth=2;" vertex="1" parent="1">
          <mxGeometry x="240" y="2100" width="80" height="70" as="geometry" />
        </mxCell>
        <mxCell id="GpJZRUMAvQBcFQaBfRYF-93" value="&lt;span style=&quot;font-size: 15px;&quot;&gt;1&lt;/span&gt;" style="rounded=1;whiteSpace=wrap;html=1;fillColor=#fff2cc;strokeColor=#000000;strokeWidth=2;" vertex="1" parent="1">
          <mxGeometry x="430" y="1830" width="80" height="70" as="geometry" />
        </mxCell>
        <mxCell id="GpJZRUMAvQBcFQaBfRYF-94" value="&lt;span style=&quot;font-size: 15px;&quot;&gt;0&lt;/span&gt;" style="rounded=1;whiteSpace=wrap;html=1;fillColor=#fff2cc;strokeColor=#000000;strokeWidth=2;" vertex="1" parent="1">
          <mxGeometry x="334" y="1920" width="80" height="70" as="geometry" />
        </mxCell>
        <mxCell id="GpJZRUMAvQBcFQaBfRYF-95" value="&lt;span style=&quot;font-size: 15px;&quot;&gt;1&lt;/span&gt;" style="rounded=1;whiteSpace=wrap;html=1;fillColor=#fff2cc;strokeColor=#000000;strokeWidth=2;" vertex="1" parent="1">
          <mxGeometry x="334" y="2010" width="80" height="70" as="geometry" />
        </mxCell>
        <mxCell id="GpJZRUMAvQBcFQaBfRYF-96" value="&lt;span style=&quot;font-size: 15px;&quot;&gt;1&lt;/span&gt;" style="rounded=1;whiteSpace=wrap;html=1;fillColor=#fff2cc;strokeColor=#000000;strokeWidth=2;" vertex="1" parent="1">
          <mxGeometry x="334" y="2100" width="80" height="70" as="geometry" />
        </mxCell>
        <mxCell id="GpJZRUMAvQBcFQaBfRYF-97" value="&lt;span style=&quot;font-size: 15px;&quot;&gt;1&lt;/span&gt;" style="rounded=1;whiteSpace=wrap;html=1;fillColor=#fff2cc;strokeColor=#000000;strokeWidth=2;" vertex="1" parent="1">
          <mxGeometry x="334" y="1830" width="80" height="70" as="geometry" />
        </mxCell>
        <mxCell id="GpJZRUMAvQBcFQaBfRYF-98" value="&lt;font style=&quot;font-size: 15px;&quot;&gt;1&lt;/font&gt;" style="rounded=1;whiteSpace=wrap;html=1;fillColor=#79D8CE;strokeColor=#000000;strokeWidth=2;" vertex="1" parent="1">
          <mxGeometry x="600" y="1830" width="80" height="70" as="geometry" />
        </mxCell>
        <mxCell id="GpJZRUMAvQBcFQaBfRYF-99" value="&lt;span style=&quot;font-size: 15px;&quot;&gt;0&lt;/span&gt;" style="rounded=1;whiteSpace=wrap;html=1;fillColor=#fff2cc;strokeColor=#000000;strokeWidth=2;" vertex="1" parent="1">
          <mxGeometry x="890" y="1920" width="80" height="70" as="geometry" />
        </mxCell>
        <mxCell id="GpJZRUMAvQBcFQaBfRYF-100" value="&lt;span style=&quot;font-size: 15px;&quot;&gt;0&lt;/span&gt;" style="rounded=1;whiteSpace=wrap;html=1;fillColor=#fff2cc;strokeColor=#000000;strokeWidth=2;" vertex="1" parent="1">
          <mxGeometry x="890" y="2010" width="80" height="70" as="geometry" />
        </mxCell>
        <mxCell id="GpJZRUMAvQBcFQaBfRYF-101" value="&lt;span style=&quot;font-size: 15px;&quot;&gt;0&lt;/span&gt;" style="rounded=1;whiteSpace=wrap;html=1;fillColor=#fff2cc;strokeColor=#000000;strokeWidth=2;" vertex="1" parent="1">
          <mxGeometry x="890" y="2100" width="80" height="70" as="geometry" />
        </mxCell>
        <mxCell id="GpJZRUMAvQBcFQaBfRYF-102" value="&lt;font style=&quot;font-size: 15px;&quot;&gt;1&lt;/font&gt;" style="rounded=1;whiteSpace=wrap;html=1;fillColor=#79D8CE;strokeColor=#000000;strokeWidth=2;" vertex="1" parent="1">
          <mxGeometry x="600" y="1920" width="80" height="70" as="geometry" />
        </mxCell>
        <mxCell id="GpJZRUMAvQBcFQaBfRYF-103" value="&lt;font style=&quot;font-size: 15px;&quot;&gt;1&lt;/font&gt;" style="rounded=1;whiteSpace=wrap;html=1;fillColor=#79D8CE;strokeColor=#000000;strokeWidth=2;" vertex="1" parent="1">
          <mxGeometry x="600" y="2010" width="80" height="70" as="geometry" />
        </mxCell>
        <mxCell id="GpJZRUMAvQBcFQaBfRYF-104" value="&lt;span style=&quot;font-size: 15px;&quot;&gt;0&lt;/span&gt;" style="rounded=1;whiteSpace=wrap;html=1;fillColor=#79D8CE;strokeColor=#000000;strokeWidth=2;" vertex="1" parent="1">
          <mxGeometry x="600" y="2100" width="80" height="70" as="geometry" />
        </mxCell>
        <mxCell id="GpJZRUMAvQBcFQaBfRYF-105" value="&lt;span style=&quot;font-size: 15px;&quot;&gt;1&lt;/span&gt;" style="rounded=1;whiteSpace=wrap;html=1;fillColor=#F19B97;strokeColor=#000000;strokeWidth=2;" vertex="1" parent="1">
          <mxGeometry x="794" y="1830" width="80" height="70" as="geometry" />
        </mxCell>
        <mxCell id="GpJZRUMAvQBcFQaBfRYF-106" value="&lt;font style=&quot;font-size: 15px;&quot;&gt;0&lt;/font&gt;" style="rounded=1;whiteSpace=wrap;html=1;fillColor=#79D8CE;strokeColor=#000000;strokeWidth=2;" vertex="1" parent="1">
          <mxGeometry x="794" y="1920" width="80" height="70" as="geometry" />
        </mxCell>
        <mxCell id="GpJZRUMAvQBcFQaBfRYF-107" value="&lt;font style=&quot;font-size: 15px;&quot;&gt;1&lt;/font&gt;" style="rounded=1;whiteSpace=wrap;html=1;fillColor=#79D8CE;strokeColor=#000000;strokeWidth=2;" vertex="1" parent="1">
          <mxGeometry x="794" y="2010" width="80" height="70" as="geometry" />
        </mxCell>
        <mxCell id="GpJZRUMAvQBcFQaBfRYF-108" value="&lt;font style=&quot;font-size: 15px;&quot;&gt;1&lt;/font&gt;" style="rounded=1;whiteSpace=wrap;html=1;fillColor=#79D8CE;strokeColor=#000000;strokeWidth=2;" vertex="1" parent="1">
          <mxGeometry x="794" y="2100" width="80" height="70" as="geometry" />
        </mxCell>
        <mxCell id="GpJZRUMAvQBcFQaBfRYF-109" value="&lt;span style=&quot;font-size: 15px;&quot;&gt;1&lt;/span&gt;" style="rounded=1;whiteSpace=wrap;html=1;fillColor=#fff2cc;strokeColor=#000000;strokeWidth=2;" vertex="1" parent="1">
          <mxGeometry x="890" y="1830" width="80" height="70" as="geometry" />
        </mxCell>
        <mxCell id="GpJZRUMAvQBcFQaBfRYF-110" value="&lt;span style=&quot;font-size: 15px;&quot;&gt;0&lt;/span&gt;" style="rounded=1;whiteSpace=wrap;html=1;fillColor=#fff2cc;strokeColor=#000000;strokeWidth=2;" vertex="1" parent="1">
          <mxGeometry x="700" y="1920" width="80" height="70" as="geometry" />
        </mxCell>
        <mxCell id="GpJZRUMAvQBcFQaBfRYF-111" value="&lt;span style=&quot;font-size: 15px;&quot;&gt;0&lt;/span&gt;" style="rounded=1;whiteSpace=wrap;html=1;fillColor=#fff2cc;strokeColor=#000000;strokeWidth=2;" vertex="1" parent="1">
          <mxGeometry x="700" y="2010" width="80" height="70" as="geometry" />
        </mxCell>
        <mxCell id="GpJZRUMAvQBcFQaBfRYF-112" value="&lt;span style=&quot;font-size: 15px;&quot;&gt;1&lt;/span&gt;" style="rounded=1;whiteSpace=wrap;html=1;fillColor=#fff2cc;strokeColor=#000000;strokeWidth=2;" vertex="1" parent="1">
          <mxGeometry x="700" y="2100" width="80" height="70" as="geometry" />
        </mxCell>
        <mxCell id="GpJZRUMAvQBcFQaBfRYF-113" value="&lt;span style=&quot;font-size: 15px;&quot;&gt;0&lt;/span&gt;" style="rounded=1;whiteSpace=wrap;html=1;fillColor=#fff2cc;strokeColor=#000000;strokeWidth=2;" vertex="1" parent="1">
          <mxGeometry x="700" y="1830" width="80" height="70" as="geometry" />
        </mxCell>
        <mxCell id="GpJZRUMAvQBcFQaBfRYF-146" value="&lt;font style=&quot;font-size: 15px;&quot;&gt;1&lt;/font&gt;" style="rounded=1;whiteSpace=wrap;html=1;fillColor=#79D8CE;strokeColor=#000000;strokeWidth=2;" vertex="1" parent="1">
          <mxGeometry x="1030" y="1830" width="80" height="70" as="geometry" />
        </mxCell>
        <mxCell id="GpJZRUMAvQBcFQaBfRYF-148" value="&lt;span style=&quot;font-size: 15px;&quot;&gt;0&lt;/span&gt;" style="rounded=1;whiteSpace=wrap;html=1;fillColor=#fff2cc;strokeColor=#000000;strokeWidth=2;" vertex="1" parent="1">
          <mxGeometry x="1320" y="2010" width="80" height="70" as="geometry" />
        </mxCell>
        <mxCell id="GpJZRUMAvQBcFQaBfRYF-149" value="&lt;span style=&quot;font-size: 15px;&quot;&gt;0&lt;/span&gt;" style="rounded=1;whiteSpace=wrap;html=1;fillColor=#fff2cc;strokeColor=#000000;strokeWidth=2;" vertex="1" parent="1">
          <mxGeometry x="1320" y="2100" width="80" height="70" as="geometry" />
        </mxCell>
        <mxCell id="GpJZRUMAvQBcFQaBfRYF-150" value="&lt;font style=&quot;font-size: 15px;&quot;&gt;1&lt;/font&gt;" style="rounded=1;whiteSpace=wrap;html=1;fillColor=#F19B97;strokeColor=#000000;strokeWidth=2;" vertex="1" parent="1">
          <mxGeometry x="1030" y="1920" width="80" height="70" as="geometry" />
        </mxCell>
        <mxCell id="GpJZRUMAvQBcFQaBfRYF-153" value="&lt;span style=&quot;font-size: 15px;&quot;&gt;1&lt;/span&gt;" style="rounded=1;whiteSpace=wrap;html=1;fillColor=#79D8CE;strokeColor=#000000;strokeWidth=2;" vertex="1" parent="1">
          <mxGeometry x="1224" y="1830" width="80" height="70" as="geometry" />
        </mxCell>
        <mxCell id="GpJZRUMAvQBcFQaBfRYF-154" value="&lt;font style=&quot;font-size: 15px;&quot;&gt;0&lt;/font&gt;" style="rounded=1;whiteSpace=wrap;html=1;fillColor=#79D8CE;strokeColor=#000000;strokeWidth=2;" vertex="1" parent="1">
          <mxGeometry x="1224" y="1920" width="80" height="70" as="geometry" />
        </mxCell>
        <mxCell id="GpJZRUMAvQBcFQaBfRYF-159" value="&lt;span style=&quot;font-size: 15px;&quot;&gt;0&lt;/span&gt;" style="rounded=1;whiteSpace=wrap;html=1;fillColor=#fff2cc;strokeColor=#000000;strokeWidth=2;" vertex="1" parent="1">
          <mxGeometry x="1130" y="2010" width="80" height="70" as="geometry" />
        </mxCell>
        <mxCell id="GpJZRUMAvQBcFQaBfRYF-160" value="&lt;span style=&quot;font-size: 15px;&quot;&gt;1&lt;/span&gt;" style="rounded=1;whiteSpace=wrap;html=1;fillColor=#fff2cc;strokeColor=#000000;strokeWidth=2;" vertex="1" parent="1">
          <mxGeometry x="1130" y="2100" width="80" height="70" as="geometry" />
        </mxCell>
        <mxCell id="GpJZRUMAvQBcFQaBfRYF-178" value="&lt;span style=&quot;font-size: 15px;&quot;&gt;0&lt;/span&gt;" style="rounded=1;whiteSpace=wrap;html=1;fillColor=#79D8CE;strokeColor=#000000;strokeWidth=2;" vertex="1" parent="1">
          <mxGeometry x="1130" y="1830" width="80" height="70" as="geometry" />
        </mxCell>
        <mxCell id="GpJZRUMAvQBcFQaBfRYF-179" value="&lt;span style=&quot;font-size: 15px;&quot;&gt;1&lt;/span&gt;" style="rounded=1;whiteSpace=wrap;html=1;fillColor=#79D8CE;strokeColor=#000000;strokeWidth=2;" vertex="1" parent="1">
          <mxGeometry x="1320" y="1830" width="80" height="70" as="geometry" />
        </mxCell>
        <mxCell id="GpJZRUMAvQBcFQaBfRYF-180" value="&lt;font style=&quot;font-size: 15px;&quot;&gt;0&lt;/font&gt;" style="rounded=1;whiteSpace=wrap;html=1;fillColor=#79D8CE;strokeColor=#000000;strokeWidth=2;" vertex="1" parent="1">
          <mxGeometry x="1130" y="1920" width="80" height="70" as="geometry" />
        </mxCell>
        <mxCell id="GpJZRUMAvQBcFQaBfRYF-181" value="&lt;font style=&quot;font-size: 15px;&quot;&gt;0&lt;/font&gt;" style="rounded=1;whiteSpace=wrap;html=1;fillColor=#79D8CE;strokeColor=#000000;strokeWidth=2;" vertex="1" parent="1">
          <mxGeometry x="1320" y="1920" width="80" height="70" as="geometry" />
        </mxCell>
        <mxCell id="GpJZRUMAvQBcFQaBfRYF-182" value="&lt;span style=&quot;font-size: 15px;&quot;&gt;1&lt;/span&gt;" style="rounded=1;whiteSpace=wrap;html=1;fillColor=#fff2cc;strokeColor=#000000;strokeWidth=2;" vertex="1" parent="1">
          <mxGeometry x="1030" y="2010" width="80" height="70" as="geometry" />
        </mxCell>
        <mxCell id="GpJZRUMAvQBcFQaBfRYF-183" value="&lt;span style=&quot;font-size: 15px;&quot;&gt;0&lt;/span&gt;" style="rounded=1;whiteSpace=wrap;html=1;fillColor=#fff2cc;strokeColor=#000000;strokeWidth=2;" vertex="1" parent="1">
          <mxGeometry x="1030" y="2100" width="80" height="70" as="geometry" />
        </mxCell>
        <mxCell id="GpJZRUMAvQBcFQaBfRYF-184" value="&lt;span style=&quot;font-size: 15px;&quot;&gt;1&lt;/span&gt;" style="rounded=1;whiteSpace=wrap;html=1;fillColor=#fff2cc;strokeColor=#000000;strokeWidth=2;" vertex="1" parent="1">
          <mxGeometry x="1224" y="2010" width="80" height="70" as="geometry" />
        </mxCell>
        <mxCell id="GpJZRUMAvQBcFQaBfRYF-185" value="&lt;span style=&quot;font-size: 15px;&quot;&gt;1&lt;/span&gt;" style="rounded=1;whiteSpace=wrap;html=1;fillColor=#fff2cc;strokeColor=#000000;strokeWidth=2;" vertex="1" parent="1">
          <mxGeometry x="1224" y="2100" width="80" height="70" as="geometry" />
        </mxCell>
        <mxCell id="GpJZRUMAvQBcFQaBfRYF-186" value="&lt;font style=&quot;font-size: 15px;&quot;&gt;1&lt;/font&gt;" style="rounded=1;whiteSpace=wrap;html=1;fillColor=#79D8CE;strokeColor=#000000;strokeWidth=2;" vertex="1" parent="1">
          <mxGeometry x="1450" y="1830" width="80" height="70" as="geometry" />
        </mxCell>
        <mxCell id="GpJZRUMAvQBcFQaBfRYF-187" value="&lt;span style=&quot;font-size: 15px;&quot;&gt;0&lt;/span&gt;" style="rounded=1;whiteSpace=wrap;html=1;fillColor=#fff2cc;strokeColor=#000000;strokeWidth=2;" vertex="1" parent="1">
          <mxGeometry x="1740" y="1920" width="80" height="70" as="geometry" />
        </mxCell>
        <mxCell id="GpJZRUMAvQBcFQaBfRYF-188" value="&lt;span style=&quot;font-size: 15px;&quot;&gt;0&lt;/span&gt;" style="rounded=1;whiteSpace=wrap;html=1;fillColor=#fff2cc;strokeColor=#000000;strokeWidth=2;" vertex="1" parent="1">
          <mxGeometry x="1740" y="2100" width="80" height="70" as="geometry" />
        </mxCell>
        <mxCell id="GpJZRUMAvQBcFQaBfRYF-190" value="&lt;span style=&quot;font-size: 15px;&quot;&gt;1&lt;/span&gt;" style="rounded=1;whiteSpace=wrap;html=1;fillColor=#79D8CE;strokeColor=#000000;strokeWidth=2;" vertex="1" parent="1">
          <mxGeometry x="1644" y="1830" width="80" height="70" as="geometry" />
        </mxCell>
        <mxCell id="GpJZRUMAvQBcFQaBfRYF-192" value="&lt;span style=&quot;font-size: 15px;&quot;&gt;0&lt;/span&gt;" style="rounded=1;whiteSpace=wrap;html=1;fillColor=#fff2cc;strokeColor=#000000;strokeWidth=2;" vertex="1" parent="1">
          <mxGeometry x="1550" y="1920" width="80" height="70" as="geometry" />
        </mxCell>
        <mxCell id="GpJZRUMAvQBcFQaBfRYF-193" value="&lt;span style=&quot;font-size: 15px;&quot;&gt;1&lt;/span&gt;" style="rounded=1;whiteSpace=wrap;html=1;fillColor=#fff2cc;strokeColor=#000000;strokeWidth=2;" vertex="1" parent="1">
          <mxGeometry x="1550" y="2100" width="80" height="70" as="geometry" />
        </mxCell>
        <mxCell id="GpJZRUMAvQBcFQaBfRYF-194" value="&lt;span style=&quot;font-size: 15px;&quot;&gt;0&lt;/span&gt;" style="rounded=1;whiteSpace=wrap;html=1;fillColor=#79D8CE;strokeColor=#000000;strokeWidth=2;" vertex="1" parent="1">
          <mxGeometry x="1550" y="1830" width="80" height="70" as="geometry" />
        </mxCell>
        <mxCell id="GpJZRUMAvQBcFQaBfRYF-195" value="&lt;span style=&quot;font-size: 15px;&quot;&gt;1&lt;/span&gt;" style="rounded=1;whiteSpace=wrap;html=1;fillColor=#79D8CE;strokeColor=#000000;strokeWidth=2;" vertex="1" parent="1">
          <mxGeometry x="1740" y="1830" width="80" height="70" as="geometry" />
        </mxCell>
        <mxCell id="GpJZRUMAvQBcFQaBfRYF-198" value="&lt;span style=&quot;font-size: 15px;&quot;&gt;1&lt;/span&gt;" style="rounded=1;whiteSpace=wrap;html=1;fillColor=#fff2cc;strokeColor=#000000;strokeWidth=2;" vertex="1" parent="1">
          <mxGeometry x="1450" y="1920" width="80" height="70" as="geometry" />
        </mxCell>
        <mxCell id="GpJZRUMAvQBcFQaBfRYF-199" value="&lt;span style=&quot;font-size: 15px;&quot;&gt;0&lt;/span&gt;" style="rounded=1;whiteSpace=wrap;html=1;fillColor=#fff2cc;strokeColor=#000000;strokeWidth=2;" vertex="1" parent="1">
          <mxGeometry x="1450" y="2100" width="80" height="70" as="geometry" />
        </mxCell>
        <mxCell id="GpJZRUMAvQBcFQaBfRYF-200" value="&lt;span style=&quot;font-size: 15px;&quot;&gt;0&lt;/span&gt;" style="rounded=1;whiteSpace=wrap;html=1;fillColor=#fff2cc;strokeColor=#000000;strokeWidth=2;" vertex="1" parent="1">
          <mxGeometry x="1644" y="1920" width="80" height="70" as="geometry" />
        </mxCell>
        <mxCell id="GpJZRUMAvQBcFQaBfRYF-201" value="&lt;span style=&quot;font-size: 15px;&quot;&gt;0&lt;/span&gt;" style="rounded=1;whiteSpace=wrap;html=1;fillColor=#fff2cc;strokeColor=#000000;strokeWidth=2;" vertex="1" parent="1">
          <mxGeometry x="1644" y="2100" width="80" height="70" as="geometry" />
        </mxCell>
        <mxCell id="GpJZRUMAvQBcFQaBfRYF-202" value="&lt;font style=&quot;font-size: 15px;&quot;&gt;1&lt;/font&gt;" style="rounded=1;whiteSpace=wrap;html=1;fillColor=#F19B97;strokeColor=#000000;strokeWidth=2;" vertex="1" parent="1">
          <mxGeometry x="1450" y="2010" width="80" height="70" as="geometry" />
        </mxCell>
        <mxCell id="GpJZRUMAvQBcFQaBfRYF-203" value="&lt;font style=&quot;font-size: 15px;&quot;&gt;1&lt;/font&gt;" style="rounded=1;whiteSpace=wrap;html=1;fillColor=#79D8CE;strokeColor=#000000;strokeWidth=2;" vertex="1" parent="1">
          <mxGeometry x="1644" y="2010" width="80" height="70" as="geometry" />
        </mxCell>
        <mxCell id="GpJZRUMAvQBcFQaBfRYF-204" value="&lt;span style=&quot;font-size: 15px;&quot;&gt;0&lt;/span&gt;" style="rounded=1;whiteSpace=wrap;html=1;fillColor=#79D8CE;strokeColor=#000000;strokeWidth=2;" vertex="1" parent="1">
          <mxGeometry x="1550" y="2010" width="80" height="70" as="geometry" />
        </mxCell>
        <mxCell id="GpJZRUMAvQBcFQaBfRYF-205" value="&lt;font style=&quot;font-size: 15px;&quot;&gt;1&lt;/font&gt;" style="rounded=1;whiteSpace=wrap;html=1;fillColor=#79D8CE;strokeColor=#000000;strokeWidth=2;" vertex="1" parent="1">
          <mxGeometry x="1740" y="2010" width="80" height="70" as="geometry" />
        </mxCell>
        <mxCell id="GpJZRUMAvQBcFQaBfRYF-332" value="&lt;span style=&quot;font-size: 15px;&quot;&gt;0&lt;/span&gt;" style="rounded=1;whiteSpace=wrap;html=1;fillColor=#fff2cc;strokeColor=#000000;strokeWidth=2;" vertex="1" parent="1">
          <mxGeometry x="430" y="2350" width="80" height="70" as="geometry" />
        </mxCell>
        <mxCell id="GpJZRUMAvQBcFQaBfRYF-333" value="&lt;span style=&quot;font-size: 15px;&quot;&gt;0&lt;/span&gt;" style="rounded=1;whiteSpace=wrap;html=1;fillColor=#fff2cc;strokeColor=#000000;strokeWidth=2;" vertex="1" parent="1">
          <mxGeometry x="430" y="2440" width="80" height="70" as="geometry" />
        </mxCell>
        <mxCell id="GpJZRUMAvQBcFQaBfRYF-337" value="&lt;span style=&quot;font-size: 15px;&quot;&gt;A&lt;/span&gt;" style="rounded=1;whiteSpace=wrap;html=1;fillColor=#79D8CE;strokeColor=#000000;strokeWidth=2;" vertex="1" parent="1">
          <mxGeometry x="140" y="2620" width="80" height="70" as="geometry" />
        </mxCell>
        <mxCell id="GpJZRUMAvQBcFQaBfRYF-342" value="&lt;span style=&quot;font-size: 15px;&quot;&gt;1&lt;/span&gt;" style="rounded=1;whiteSpace=wrap;html=1;fillColor=#fff2cc;strokeColor=#000000;strokeWidth=2;" vertex="1" parent="1">
          <mxGeometry x="430" y="2260" width="80" height="70" as="geometry" />
        </mxCell>
        <mxCell id="GpJZRUMAvQBcFQaBfRYF-343" value="&lt;span style=&quot;font-size: 15px;&quot;&gt;0&lt;/span&gt;" style="rounded=1;whiteSpace=wrap;html=1;fillColor=#fff2cc;strokeColor=#000000;strokeWidth=2;" vertex="1" parent="1">
          <mxGeometry x="334" y="2350" width="80" height="70" as="geometry" />
        </mxCell>
        <mxCell id="GpJZRUMAvQBcFQaBfRYF-344" value="&lt;span style=&quot;font-size: 15px;&quot;&gt;1&lt;/span&gt;" style="rounded=1;whiteSpace=wrap;html=1;fillColor=#fff2cc;strokeColor=#000000;strokeWidth=2;" vertex="1" parent="1">
          <mxGeometry x="334" y="2440" width="80" height="70" as="geometry" />
        </mxCell>
        <mxCell id="GpJZRUMAvQBcFQaBfRYF-346" value="&lt;span style=&quot;font-size: 15px;&quot;&gt;1&lt;/span&gt;" style="rounded=1;whiteSpace=wrap;html=1;fillColor=#fff2cc;strokeColor=#000000;strokeWidth=2;" vertex="1" parent="1">
          <mxGeometry x="334" y="2260" width="80" height="70" as="geometry" />
        </mxCell>
        <mxCell id="GpJZRUMAvQBcFQaBfRYF-347" value="&lt;span style=&quot;font-size: 15px;&quot;&gt;0&lt;/span&gt;" style="rounded=1;whiteSpace=wrap;html=1;fillColor=#fff2cc;strokeColor=#000000;strokeWidth=2;" vertex="1" parent="1">
          <mxGeometry x="236" y="2350" width="80" height="70" as="geometry" />
        </mxCell>
        <mxCell id="GpJZRUMAvQBcFQaBfRYF-348" value="&lt;span style=&quot;font-size: 15px;&quot;&gt;0&lt;/span&gt;" style="rounded=1;whiteSpace=wrap;html=1;fillColor=#fff2cc;strokeColor=#000000;strokeWidth=2;" vertex="1" parent="1">
          <mxGeometry x="236" y="2440" width="80" height="70" as="geometry" />
        </mxCell>
        <mxCell id="GpJZRUMAvQBcFQaBfRYF-349" value="&lt;span style=&quot;font-size: 15px;&quot;&gt;1&lt;/span&gt;" style="rounded=1;whiteSpace=wrap;html=1;fillColor=#fff2cc;strokeColor=#000000;strokeWidth=2;" vertex="1" parent="1">
          <mxGeometry x="236" y="2260" width="80" height="70" as="geometry" />
        </mxCell>
        <mxCell id="GpJZRUMAvQBcFQaBfRYF-350" value="&lt;span style=&quot;font-size: 15px;&quot;&gt;0&lt;/span&gt;" style="rounded=1;whiteSpace=wrap;html=1;fillColor=#fff2cc;strokeColor=#000000;strokeWidth=2;" vertex="1" parent="1">
          <mxGeometry x="140" y="2350" width="80" height="70" as="geometry" />
        </mxCell>
        <mxCell id="GpJZRUMAvQBcFQaBfRYF-351" value="&lt;span style=&quot;font-size: 15px;&quot;&gt;1&lt;/span&gt;" style="rounded=1;whiteSpace=wrap;html=1;fillColor=#fff2cc;strokeColor=#000000;strokeWidth=2;" vertex="1" parent="1">
          <mxGeometry x="140" y="2440" width="80" height="70" as="geometry" />
        </mxCell>
        <mxCell id="GpJZRUMAvQBcFQaBfRYF-352" value="&lt;span style=&quot;font-size: 15px;&quot;&gt;1&lt;/span&gt;" style="rounded=1;whiteSpace=wrap;html=1;fillColor=#fff2cc;strokeColor=#000000;strokeWidth=2;" vertex="1" parent="1">
          <mxGeometry x="140" y="2260" width="80" height="70" as="geometry" />
        </mxCell>
        <mxCell id="GpJZRUMAvQBcFQaBfRYF-353" value="&lt;span style=&quot;font-size: 15px;&quot;&gt;0&lt;/span&gt;" style="rounded=1;whiteSpace=wrap;html=1;fillColor=#fff2cc;strokeColor=#000000;strokeWidth=2;" vertex="1" parent="1">
          <mxGeometry x="430" y="2530" width="80" height="70" as="geometry" />
        </mxCell>
        <mxCell id="GpJZRUMAvQBcFQaBfRYF-354" value="&lt;span style=&quot;font-size: 15px;&quot;&gt;1&lt;/span&gt;" style="rounded=1;whiteSpace=wrap;html=1;fillColor=#fff2cc;strokeColor=#000000;strokeWidth=2;" vertex="1" parent="1">
          <mxGeometry x="334" y="2530" width="80" height="70" as="geometry" />
        </mxCell>
        <mxCell id="GpJZRUMAvQBcFQaBfRYF-355" value="&lt;span style=&quot;font-size: 15px;&quot;&gt;0&lt;/span&gt;" style="rounded=1;whiteSpace=wrap;html=1;fillColor=#fff2cc;strokeColor=#000000;strokeWidth=2;" vertex="1" parent="1">
          <mxGeometry x="236" y="2530" width="80" height="70" as="geometry" />
        </mxCell>
        <mxCell id="GpJZRUMAvQBcFQaBfRYF-356" value="&lt;span style=&quot;font-size: 15px;&quot;&gt;1&lt;/span&gt;" style="rounded=1;whiteSpace=wrap;html=1;fillColor=#fff2cc;strokeColor=#000000;strokeWidth=2;" vertex="1" parent="1">
          <mxGeometry x="140" y="2530" width="80" height="70" as="geometry" />
        </mxCell>
        <mxCell id="GpJZRUMAvQBcFQaBfRYF-357" value="&lt;span style=&quot;font-size: 15px;&quot;&gt;E&lt;/span&gt;" style="rounded=1;whiteSpace=wrap;html=1;fillColor=#79D8CE;strokeColor=#000000;strokeWidth=2;" vertex="1" parent="1">
          <mxGeometry x="140" y="2720" width="80" height="70" as="geometry" />
        </mxCell>
        <mxCell id="GpJZRUMAvQBcFQaBfRYF-363" value="&lt;span style=&quot;font-size: 15px;&quot;&gt;B&lt;/span&gt;" style="rounded=1;whiteSpace=wrap;html=1;fillColor=#79D8CE;strokeColor=#000000;strokeWidth=2;" vertex="1" parent="1">
          <mxGeometry x="236" y="2620" width="80" height="70" as="geometry" />
        </mxCell>
        <mxCell id="GpJZRUMAvQBcFQaBfRYF-364" value="&lt;span style=&quot;font-size: 15px;&quot;&gt;F&lt;/span&gt;" style="rounded=1;whiteSpace=wrap;html=1;fillColor=#79D8CE;strokeColor=#000000;strokeWidth=2;" vertex="1" parent="1">
          <mxGeometry x="236" y="2720" width="80" height="70" as="geometry" />
        </mxCell>
        <mxCell id="GpJZRUMAvQBcFQaBfRYF-365" value="&lt;span style=&quot;font-size: 15px;&quot;&gt;C&lt;/span&gt;" style="rounded=1;whiteSpace=wrap;html=1;fillColor=#79D8CE;strokeColor=#000000;strokeWidth=2;" vertex="1" parent="1">
          <mxGeometry x="334" y="2620" width="80" height="70" as="geometry" />
        </mxCell>
        <mxCell id="GpJZRUMAvQBcFQaBfRYF-366" value="&lt;span style=&quot;font-size: 15px;&quot;&gt;G&lt;/span&gt;" style="rounded=1;whiteSpace=wrap;html=1;fillColor=#79D8CE;strokeColor=#000000;strokeWidth=2;" vertex="1" parent="1">
          <mxGeometry x="334" y="2720" width="80" height="70" as="geometry" />
        </mxCell>
        <mxCell id="GpJZRUMAvQBcFQaBfRYF-367" value="&lt;span style=&quot;font-size: 15px;&quot;&gt;D&lt;/span&gt;" style="rounded=1;whiteSpace=wrap;html=1;fillColor=#79D8CE;strokeColor=#000000;strokeWidth=2;" vertex="1" parent="1">
          <mxGeometry x="430" y="2620" width="80" height="70" as="geometry" />
        </mxCell>
        <mxCell id="GpJZRUMAvQBcFQaBfRYF-368" value="&lt;span style=&quot;font-size: 15px;&quot;&gt;H&lt;/span&gt;" style="rounded=1;whiteSpace=wrap;html=1;fillColor=#79D8CE;strokeColor=#000000;strokeWidth=2;" vertex="1" parent="1">
          <mxGeometry x="430" y="2720" width="80" height="70" as="geometry" />
        </mxCell>
        <mxCell id="GpJZRUMAvQBcFQaBfRYF-370" value="&lt;span style=&quot;font-size: 15px;&quot;&gt;A&lt;/span&gt;" style="rounded=1;whiteSpace=wrap;html=1;fillColor=#fff2cc;strokeColor=#000000;strokeWidth=2;" vertex="1" parent="1">
          <mxGeometry x="690" y="2440" width="80" height="70" as="geometry" />
        </mxCell>
        <mxCell id="GpJZRUMAvQBcFQaBfRYF-371" value="&lt;span style=&quot;font-size: 15px;&quot;&gt;T&lt;/span&gt;" style="rounded=1;whiteSpace=wrap;html=1;fillColor=#fff2cc;strokeColor=#000000;strokeWidth=2;" vertex="1" parent="1">
          <mxGeometry x="690" y="2530" width="80" height="70" as="geometry" />
        </mxCell>
        <mxCell id="GpJZRUMAvQBcFQaBfRYF-372" value="&lt;span style=&quot;font-size: 15px;&quot;&gt;D&lt;/span&gt;" style="rounded=1;whiteSpace=wrap;html=1;fillColor=#fff2cc;strokeColor=#000000;strokeWidth=2;" vertex="1" parent="1">
          <mxGeometry x="690" y="2350" width="80" height="70" as="geometry" />
        </mxCell>
        <mxCell id="GpJZRUMAvQBcFQaBfRYF-373" value="&lt;span style=&quot;font-size: 15px;&quot;&gt;A&lt;/span&gt;" style="rounded=1;whiteSpace=wrap;html=1;fillColor=#fff2cc;strokeColor=#000000;strokeWidth=2;" vertex="1" parent="1">
          <mxGeometry x="690" y="2620" width="80" height="70" as="geometry" />
        </mxCell>
        <mxCell id="GpJZRUMAvQBcFQaBfRYF-375" value="&lt;span style=&quot;font-size: 15px;&quot;&gt;B1&lt;/span&gt;" style="rounded=1;whiteSpace=wrap;html=1;fillColor=#79D8CE;strokeColor=#000000;strokeWidth=2;" vertex="1" parent="1">
          <mxGeometry x="1000" y="2620" width="80" height="70" as="geometry" />
        </mxCell>
        <mxCell id="GpJZRUMAvQBcFQaBfRYF-376" value="&lt;span style=&quot;font-size: 15px;&quot;&gt;A&lt;/span&gt;" style="rounded=1;whiteSpace=wrap;html=1;fillColor=#fff2cc;strokeColor=#000000;strokeWidth=2;" vertex="1" parent="1">
          <mxGeometry x="1000" y="2350" width="80" height="70" as="geometry" />
        </mxCell>
        <mxCell id="GpJZRUMAvQBcFQaBfRYF-377" value="&lt;span style=&quot;font-size: 15px;&quot;&gt;T&lt;/span&gt;" style="rounded=1;whiteSpace=wrap;html=1;fillColor=#fff2cc;strokeColor=#000000;strokeWidth=2;" vertex="1" parent="1">
          <mxGeometry x="1000" y="2440" width="80" height="70" as="geometry" />
        </mxCell>
        <mxCell id="GpJZRUMAvQBcFQaBfRYF-378" value="&lt;span style=&quot;font-size: 15px;&quot;&gt;D&lt;/span&gt;" style="rounded=1;whiteSpace=wrap;html=1;fillColor=#fff2cc;strokeColor=#000000;strokeWidth=2;" vertex="1" parent="1">
          <mxGeometry x="1000" y="2260" width="80" height="70" as="geometry" />
        </mxCell>
        <mxCell id="GpJZRUMAvQBcFQaBfRYF-379" value="&lt;span style=&quot;font-size: 15px;&quot;&gt;A&lt;/span&gt;" style="rounded=1;whiteSpace=wrap;html=1;fillColor=#fff2cc;strokeColor=#000000;strokeWidth=2;" vertex="1" parent="1">
          <mxGeometry x="1000" y="2530" width="80" height="70" as="geometry" />
        </mxCell>
        <mxCell id="GpJZRUMAvQBcFQaBfRYF-380" value="&lt;span style=&quot;font-size: 15px;&quot;&gt;C1&lt;/span&gt;" style="rounded=1;whiteSpace=wrap;html=1;fillColor=#79D8CE;strokeColor=#000000;strokeWidth=2;" vertex="1" parent="1">
          <mxGeometry x="1000" y="2720" width="80" height="70" as="geometry" />
        </mxCell>
        <mxCell id="GpJZRUMAvQBcFQaBfRYF-381" value="" style="shape=image;verticalLabelPosition=bottom;labelBackgroundColor=default;verticalAlign=top;aspect=fixed;imageAspect=0;image=data:image/png,iVBORw0KGgoAAAANSUhEUgAAAMgAAADICAYAAACtWK6eAAAAAXNSR0IArs4c6QAACRJJREFUeF7tnU1220gMBqUzUfvYJ4vnZNHsyTNxTEea0Ap/uoEmuwFU3pvVEBJRH0ogZdm6XvgHAQisErjCBgIQWCeAIEwHBDYIIAjjAQEEYQYgICPABpFxoyoIAQQJEjRtygggiIwbVUEIIEiQoGlTRgBBZNyoCkIAQYIETZsyAggi40ZVEAIIEiRo2pQRQBAZN6qCEECQIEHTpowAgsi4URWEAIIECZo2ZQQQRMaNqiAEECRI0LQpI4AgMm5UBSGAIEGCpk0ZAQSRcaMqCAEECRI0bcoIIIiMG1VBCCBIkKBpU0YAQWTcqApCAEGCBE2bMgIIIuNGVRACCBIkaNqUEUAQGTeqghBAkCBB06aMAILIuFEVhACCBAmaNmUEEETGjaogBBAkSNC0KSOAIDJuVAUhgCBBgqZNGQEEkXGjKggBBAkSNG3KCCCIjBtVQQggSJCgaVNGAEFk3KgKQsCVILfb7WMht3vf9/cgeZ7a5u12e7tcLtN/839frL0wNy/IJMU4jj8WgvqW2vV6/afv+yWBTh0qD0/2YP5zp5f7g7npFyfTgnRd92tPjNcQEUWuaKIYr09gWhSTgkyr/XNrTHKI/iFJPjahHP8/0fV6fbd42WVOEK0cz8SQJF0SrRwz5uYkMSeI5LJqbRSQZF+SUnI8n2kYBlMzZ+pkS4c1hYYk65LA+3IxJUjXdeP+a17+EUjyN7Mj5LC4RcwIUureg8ut/ReQI+WwtrXNCFLy3gNJzr2ssvxWO4K8pBf5cuvozTFDfR+G4X1/l9U/wpIgh9x/LEUQUZIT5fhCbuXdLARZeZGKJMnZciDIAZvxqHewtk41giQ15Pj8eBCXWKUdOeMmPdrlViU5JswIUlqQimG6/GFiZZ5mPnJi5h5kEq7GZdbsc0RuPi5fU47Hz0EQpPQGmR6vgWDNS1KboaXLqy+ZjxjkIx+z5hax9lPg1xwakGO6XDWzPUwK0kjI5jZJI9xMyWFSkBYutaxtkkbkMPeiYlYQJEm/iEWOdFaLb/PryutWE/42f/jo59PcTXqjN57NXT4gh14O05dY8/YZhu/DAI8ycrgRhHuSPwOBHOXkcCUIktT/Qaq1d/dSVDJ/D8I9yW8CbI6Ucc8/xp0gEYcFOfIHP7XCpSCRJEGO1FGXHedWkAiSIIds6HOqXAviWRLkyBlz+bHuBfEoCXLIBz63MoQgniRBjtwR1x0fRhAPkiCHbtgl1aEEsSwJckjGW18TThCLkiCHftCljxBSEEuSIId0tMvUhRXEgiTIUWbINY8SWpCWJUEOzViXqw0vSIuSIEe5Adc+EoI8CLYylNPpjOO49x3k2tw36yP8TeJUgAgyI9WCJKnBHXUccnwniyAvkxZZEuT4+2UHQRZeiiNKghzLOxlBVq5VIkmCHOsXrAiycTEfQRLk2L6bQ5Cdu13PkiDH/lsdCLLPqIk/iJBwmlmHIEcaLgRJ4+RKEuRIDN3i94Okt1b+SA+XW8iRNxdskDxepjcJcmSGzQbJBzZVWNwkyCHLmg0i42ZKEuQQhswGkYOzskmQQ5cxG0THr+lNghzKcNkgeoCtbhLkKJMtG6QMx6Y2CXIUCpUNUg7kY5Pcx3H8UfZR8x7t83vI/+37/i2viqPXCLBBCs1GS2/9skEKhcoGKQOyJTmeHSFJmWzZIEqOLcqBJMpQZ+UIomDZshxIoggWQfTwLMiBJPqc2SAChpbkQBJBwGwQOTSLciCJPG82SAY7y3IgSUbQbJB8WB7kQJL83NkgCcw8yYEkCYGzQdIheZQDSdLzZ4NssPIsB5KkSYIgK5wiyIEk+5IgyAKjSHIgybYkCPLCJ6IcSLIuCYLM2ESWA0mWJUGQB5cW5Jg+oj6dDt8wtX9vcNYRCNLI37ma//5GK7L2ff9x1iC2+jzhBWl1GFs9r1YH+ajzCi1I60PY+vkdNZQtPW5YQawMn5XzbGmoS55LSEGsDZ218y05oLUfK5wgVofN6nnXHnDt84cSxPqQWT9/7bDWqA8jiJfh8tJHjWGXPGcIQbwNlbd+JIN7Vo17QbwOk9e+zhr81OdxLYj3IfLeX+oQH3mcW0GiDE+UPo+UYOuxXQoSbWii9XumLO4EiTosUfs+WhZXgkQfkuj9HyGLG0EYjt/jAYeymrgQhKH4PhTwKCeJeUEYhuVhgEsZSUwLwhBsDwF89JKYFYTw08KHUxqntaNMCkLoeaHDK4/X/GhzghC2LGy4ybiZEuR2u719fg/5L1mrZaosf3sskuTPgClBuq6b5HjLb7NMhWU5ngRqS2KNoRlBam8Pa8FuvSQ0IMl73/f3Mi9bxz6KJUE+av3FQU9ytLBJLPE0I0ityytLYea+llbcJPdhGN5zz7fG8ZYEGc8G5FmO2ptkGAYTs2fiJKcwu647VZAIctSUBEEKv9yfKUgkOWpJgiDlBTnlLd6IclSQhHuQwn6c8nsOkeU4WRIEsSYIcvxJ7Oh3t67XKz8HKS3IkTfqyPF3WgdKYmZ7TFTMvIs1newRoSHH+kvZQbzNbA9zgjy2SLGbdeTY3/OFJTG1PUwKUupSCzn25Sh8425ODrOCPD64+FP6yV7kSJejkCQm5TAriCK0+0MOE58kzR/jYyskL0zWX4xM3aQvxT8Lbfrfi78r8vz+cb7WuIxAKaJYF+NJyrwg88in4F5HwMrvHZQZ3fMfZcZ8Yv+1mT0xdyXI+ePBM3ongCDeE6Y/FQEEUeGj2DsBBPGeMP2pCCCICh/F3gkgiPeE6U9FAEFU+Cj2TgBBvCdMfyoCCKLCR7F3AgjiPWH6UxFAEBU+ir0TQBDvCdOfigCCqPBR7J0AgnhPmP5UBBBEhY9i7wQQxHvC9KcigCAqfBR7J4Ag3hOmPxUBBFHho9g7AQTxnjD9qQggiAofxd4JIIj3hOlPRQBBVPgo9k4AQbwnTH8qAgiiwkexdwII4j1h+lMRQBAVPoq9E0AQ7wnTn4oAgqjwUeydAIJ4T5j+VAQQRIWPYu8EEMR7wvSnIoAgKnwUeyeAIN4Tpj8VAQRR4aPYOwEE8Z4w/akIIIgKH8XeCSCI94TpT0UAQVT4KPZOAEG8J0x/KgIIosJHsXcC/wGTS/QUNGFPSAAAAABJRU5ErkJggg==;" vertex="1" parent="1">
          <mxGeometry x="555.5" y="2470" width="91" height="91" as="geometry" />
        </mxCell>
        <mxCell id="GpJZRUMAvQBcFQaBfRYF-384" value="" style="shape=image;verticalLabelPosition=bottom;labelBackgroundColor=default;verticalAlign=top;aspect=fixed;imageAspect=0;image=data:image/png,iVBORw0KGgoAAAANSUhEUgAAAMgAAADICAYAAACtWK6eAAAAAXNSR0IArs4c6QAABtZJREFUeF7t3WGuE0cQRWGzn9lDwsoSVhbYw+yHaIgtPSUQisK0Z+p+/oGQ6HJ3nduHHj/7ed7dPBBA4JsE3mGDAALfJkAQuwOB/yFAENsDAYLYAwj0CDhBetxUhRAgSEjQ2uwRIEiPm6oQAgQJCVqbPQIE6XFTFUKAICFBa7NHgCA9bqpCCBAkJGht9ggQpMdNVQgBgoQErc0eAYL0uKkKIUCQkKC12SNAkB43VSEECBIStDZ7BAjS46YqhABBQoLWZo8AQXrcVIUQIEhI0NrsESBIj5uqEAIECQlamz0CBOlxUxVCgCAhQWuzR4AgPW6qQggQJCRobfYIEKTHTVUIAYKEBK3NHgGC9LipCiFAkJCgtdkjQJAeN1UhBAgSErQ2ewQI0uOmKoQAQUKC1maPAEF63FSFECBISNDa7BEgSI+bqhACBAkJWps9AgTpcVMVQoAgIUFrs0eAID1uqkIIECQkaG32CBCkx01VCAGChAStzR4BgvS4qQohQJCQoLXZI0CQHjdVIQQIEhK0NnsECNLjpiqEAEFCgtZmjwBBetxUhRAgSEjQ2uwRIEiPm6oQAgQJCVqbPQIE6XFTFUKAICFBa7NHgCA9bqpCCBAkJGht9ggQpMdNVQgBgoQErc0eAYL0uKkKIUCQkKC12SNAkB43VSEECBIStDZ7BAjS46YqhABBQoLWZo8AQXrcVIUQIEhI0NrsESBIj5uqEAIECQlamz0CBOlxUxVCgCAhQWuzR4AgPW6qQggQJCRobfYIjBZk27bfb7fbH3c0x989nkfg4+12+3Q83b7vfz7vac/1TCMFeSMGKdbttw8TRRknyLZtx/9mj1Nj3fYw00FgnCSjBCHHKSwdJck0QT6fYouEL2Lf9zH7akwjTo9TWfl+3/fjRfzlH5ME+et2u3lRfo4t+XHf9/fnWMrPrWKSIC6vfm4vPLV6ymUWQZ66LTzZgwBBTrYXtm1zgpwoE4KcKIxjKdu2eQ1ynkzG/Kh30iXW8QL9kMTj9QQI8voM/rsCp8g5UplyeXXQHHOC3C+znCKvd2TMeyDjBLlL4rNYr5NkzKXVA+GoE+TR1P3TvG8/6v66LZMx8/Gu+SHHiHfP30Y2UpCviPJbxj5d3uXx+yDHu+bjxBh9gizfJiYcS2D0CTI2NY0tI0CQZahNdEUCBLliata8jABBlqE20RUJEOSKqVnzMgIEWYbaRFckQJArpmbNywgQZBlqE12RAEGumJo1LyNAkGWoTXRFAgS5YmrWvIwAQZahNtEVCRDkiqlZ8zICBFmG2kRXJECQK6ZmzcsIEGQZahNdkQBBrpiaNS8jQJBlqE10RQIEuWJq1ryMAEGWoTbRFQkQ5IqpWfMyAgRZhtpEVyRAkCumZs3LCEQIcv+mxWVQUyaa/IVxjwzHCnKX4rhfuvsW/lpjPxxPv+/78Z3I4x4jBXHH25fs03FfXH1QHCeIe4S8RI7HpGPubjvyEsvJ8VI5HpOPOklGnSBu5HkKQY5FjLmJzhhBnB6nkeNYyJhLrUmCuMvteRwhyHmy+GclLq/OlciUG3lOOkE+n2uLZK+GICfL3493zxUIQc6Vx3GJ5TXIeTIZ86PeSZdY7pFOkKcTGCPI/YW6U+TpW+SHn3DM6eGjJj+cvYLvEZjy2mPkR00eTXk98r1t/Ev+/bhX+nF6jLpn+qhLrLexe2f9l0jwtSc9hPjk4+7LeD93ovvvhfidkOdi/fJxkuOPaSfGvzGNPUGevx88YyIBgiSmrucyAYKUURmYSIAgianruUyAIGVUBiYSIEhi6nouEyBIGZWBiQQIkpi6nssECFJGZWAiAYIkpq7nMgGClFEZmEiAIImp67lMgCBlVAYmEiBIYup6LhMgSBmVgYkECJKYup7LBAhSRmVgIgGCJKau5zIBgpRRGZhIgCCJqeu5TIAgZVQGJhIgSGLqei4TIEgZlYGJBAiSmLqeywQIUkZlYCIBgiSmrucyAYKUURmYSIAgianruUyAIGVUBiYSIEhi6nouEyBIGZWBiQQIkpi6nssECFJGZWAiAYIkpq7nMgGClFEZmEiAIImp67lMgCBlVAYmEiBIYup6LhMgSBmVgYkECJKYup7LBAhSRmVgIgGCJKau5zIBgpRRGZhIgCCJqeu5TIAgZVQGJhIgSGLqei4TIEgZlYGJBAiSmLqeywQIUkZlYCIBgiSmrucyAYKUURmYSIAgianruUyAIGVUBiYSIEhi6nouEyBIGZWBiQQIkpi6nssECFJGZWAiAYIkpq7nMgGClFEZmEiAIImp67lMgCBlVAYmEiBIYup6LhMgSBmVgYkECJKYup7LBP4Gn5CqyQ25vq0AAAAASUVORK5CYII=;" vertex="1" parent="1">
          <mxGeometry x="810" y="2440" width="150" height="150" as="geometry" />
        </mxCell>
        <mxCell id="GpJZRUMAvQBcFQaBfRYF-385" value="&lt;span style=&quot;font-size: 15px;&quot;&gt;0&lt;/span&gt;" style="rounded=1;whiteSpace=wrap;html=1;fillColor=#fff2cc;strokeColor=#000000;strokeWidth=2;" vertex="1" parent="1">
          <mxGeometry x="430" y="2990" width="80" height="70" as="geometry" />
        </mxCell>
        <mxCell id="GpJZRUMAvQBcFQaBfRYF-387" value="&lt;span style=&quot;font-size: 15px;&quot;&gt;A&lt;/span&gt;" style="rounded=1;whiteSpace=wrap;html=1;fillColor=#79D8CE;strokeColor=#000000;strokeWidth=2;" vertex="1" parent="1">
          <mxGeometry x="140" y="3080" width="80" height="70" as="geometry" />
        </mxCell>
        <mxCell id="GpJZRUMAvQBcFQaBfRYF-388" value="&lt;span style=&quot;font-size: 15px;&quot;&gt;1&lt;/span&gt;" style="rounded=1;whiteSpace=wrap;html=1;fillColor=#fff2cc;strokeColor=#000000;strokeWidth=2;" vertex="1" parent="1">
          <mxGeometry x="430" y="2900" width="80" height="70" as="geometry" />
        </mxCell>
        <mxCell id="GpJZRUMAvQBcFQaBfRYF-389" value="&lt;span style=&quot;font-size: 15px;&quot;&gt;0&lt;/span&gt;" style="rounded=1;whiteSpace=wrap;html=1;fillColor=#fff2cc;strokeColor=#000000;strokeWidth=2;" vertex="1" parent="1">
          <mxGeometry x="334" y="2990" width="80" height="70" as="geometry" />
        </mxCell>
        <mxCell id="GpJZRUMAvQBcFQaBfRYF-391" value="&lt;span style=&quot;font-size: 15px;&quot;&gt;1&lt;/span&gt;" style="rounded=1;whiteSpace=wrap;html=1;fillColor=#fff2cc;strokeColor=#000000;strokeWidth=2;" vertex="1" parent="1">
          <mxGeometry x="334" y="2900" width="80" height="70" as="geometry" />
        </mxCell>
        <mxCell id="GpJZRUMAvQBcFQaBfRYF-392" value="&lt;span style=&quot;font-size: 15px;&quot;&gt;0&lt;/span&gt;" style="rounded=1;whiteSpace=wrap;html=1;fillColor=#fff2cc;strokeColor=#000000;strokeWidth=2;" vertex="1" parent="1">
          <mxGeometry x="236" y="2990" width="80" height="70" as="geometry" />
        </mxCell>
        <mxCell id="GpJZRUMAvQBcFQaBfRYF-394" value="&lt;span style=&quot;font-size: 15px;&quot;&gt;1&lt;/span&gt;" style="rounded=1;whiteSpace=wrap;html=1;fillColor=#fff2cc;strokeColor=#000000;strokeWidth=2;" vertex="1" parent="1">
          <mxGeometry x="236" y="2900" width="80" height="70" as="geometry" />
        </mxCell>
        <mxCell id="GpJZRUMAvQBcFQaBfRYF-395" value="&lt;span style=&quot;font-size: 15px;&quot;&gt;0&lt;/span&gt;" style="rounded=1;whiteSpace=wrap;html=1;fillColor=#fff2cc;strokeColor=#000000;strokeWidth=2;" vertex="1" parent="1">
          <mxGeometry x="140" y="2990" width="80" height="70" as="geometry" />
        </mxCell>
        <mxCell id="GpJZRUMAvQBcFQaBfRYF-397" value="&lt;span style=&quot;font-size: 15px;&quot;&gt;1&lt;/span&gt;" style="rounded=1;whiteSpace=wrap;html=1;fillColor=#fff2cc;strokeColor=#000000;strokeWidth=2;" vertex="1" parent="1">
          <mxGeometry x="140" y="2900" width="80" height="70" as="geometry" />
        </mxCell>
        <mxCell id="GpJZRUMAvQBcFQaBfRYF-402" value="&lt;span style=&quot;font-size: 15px;&quot;&gt;E&lt;/span&gt;" style="rounded=1;whiteSpace=wrap;html=1;fillColor=#79D8CE;strokeColor=#000000;strokeWidth=2;" vertex="1" parent="1">
          <mxGeometry x="140" y="3180" width="80" height="70" as="geometry" />
        </mxCell>
        <mxCell id="GpJZRUMAvQBcFQaBfRYF-403" value="&lt;span style=&quot;font-size: 15px;&quot;&gt;B&lt;/span&gt;" style="rounded=1;whiteSpace=wrap;html=1;fillColor=#79D8CE;strokeColor=#000000;strokeWidth=2;" vertex="1" parent="1">
          <mxGeometry x="236" y="3080" width="80" height="70" as="geometry" />
        </mxCell>
        <mxCell id="GpJZRUMAvQBcFQaBfRYF-404" value="&lt;span style=&quot;font-size: 15px;&quot;&gt;F&lt;/span&gt;" style="rounded=1;whiteSpace=wrap;html=1;fillColor=#79D8CE;strokeColor=#000000;strokeWidth=2;" vertex="1" parent="1">
          <mxGeometry x="236" y="3180" width="80" height="70" as="geometry" />
        </mxCell>
        <mxCell id="GpJZRUMAvQBcFQaBfRYF-405" value="&lt;span style=&quot;font-size: 15px;&quot;&gt;C&lt;/span&gt;" style="rounded=1;whiteSpace=wrap;html=1;fillColor=#79D8CE;strokeColor=#000000;strokeWidth=2;" vertex="1" parent="1">
          <mxGeometry x="334" y="3080" width="80" height="70" as="geometry" />
        </mxCell>
        <mxCell id="GpJZRUMAvQBcFQaBfRYF-406" value="&lt;span style=&quot;font-size: 15px;&quot;&gt;G&lt;/span&gt;" style="rounded=1;whiteSpace=wrap;html=1;fillColor=#79D8CE;strokeColor=#000000;strokeWidth=2;" vertex="1" parent="1">
          <mxGeometry x="334" y="3180" width="80" height="70" as="geometry" />
        </mxCell>
        <mxCell id="GpJZRUMAvQBcFQaBfRYF-407" value="&lt;span style=&quot;font-size: 15px;&quot;&gt;D&lt;/span&gt;" style="rounded=1;whiteSpace=wrap;html=1;fillColor=#79D8CE;strokeColor=#000000;strokeWidth=2;" vertex="1" parent="1">
          <mxGeometry x="430" y="3080" width="80" height="70" as="geometry" />
        </mxCell>
        <mxCell id="GpJZRUMAvQBcFQaBfRYF-408" value="&lt;span style=&quot;font-size: 15px;&quot;&gt;H&lt;/span&gt;" style="rounded=1;whiteSpace=wrap;html=1;fillColor=#79D8CE;strokeColor=#000000;strokeWidth=2;" vertex="1" parent="1">
          <mxGeometry x="430" y="3180" width="80" height="70" as="geometry" />
        </mxCell>
        <mxCell id="GpJZRUMAvQBcFQaBfRYF-437" value="&lt;span style=&quot;font-size: 15px;&quot;&gt;0&lt;/span&gt;" style="rounded=1;whiteSpace=wrap;html=1;fillColor=#fff2cc;strokeColor=#000000;strokeWidth=2;" vertex="1" parent="1">
          <mxGeometry x="1010" y="3585" width="80" height="70" as="geometry" />
        </mxCell>
        <mxCell id="GpJZRUMAvQBcFQaBfRYF-439" value="&lt;span style=&quot;font-size: 15px;&quot;&gt;1&lt;/span&gt;" style="rounded=1;whiteSpace=wrap;html=1;fillColor=#79D8CE;strokeColor=#000000;strokeWidth=2;" vertex="1" parent="1">
          <mxGeometry x="1010" y="3495" width="80" height="70" as="geometry" />
        </mxCell>
        <mxCell id="GpJZRUMAvQBcFQaBfRYF-440" value="&lt;span style=&quot;font-size: 15px;&quot;&gt;0&lt;/span&gt;" style="rounded=1;whiteSpace=wrap;html=1;fillColor=#fff2cc;strokeColor=#000000;strokeWidth=2;" vertex="1" parent="1">
          <mxGeometry x="914" y="3585" width="80" height="70" as="geometry" />
        </mxCell>
        <mxCell id="GpJZRUMAvQBcFQaBfRYF-441" value="&lt;span style=&quot;font-size: 15px;&quot;&gt;1&lt;/span&gt;" style="rounded=1;whiteSpace=wrap;html=1;fillColor=#fff2cc;strokeColor=#000000;strokeWidth=2;" vertex="1" parent="1">
          <mxGeometry x="914" y="3495" width="80" height="70" as="geometry" />
        </mxCell>
        <mxCell id="GpJZRUMAvQBcFQaBfRYF-442" value="&lt;span style=&quot;font-size: 15px;&quot;&gt;0&lt;/span&gt;" style="rounded=1;whiteSpace=wrap;html=1;fillColor=#79D8CE;strokeColor=#000000;strokeWidth=2;" vertex="1" parent="1">
          <mxGeometry x="816" y="3585" width="80" height="70" as="geometry" />
        </mxCell>
        <mxCell id="GpJZRUMAvQBcFQaBfRYF-443" value="&lt;span style=&quot;font-size: 15px;&quot;&gt;1&lt;/span&gt;" style="rounded=1;whiteSpace=wrap;html=1;fillColor=#fff2cc;strokeColor=#000000;strokeWidth=2;" vertex="1" parent="1">
          <mxGeometry x="816" y="3495" width="80" height="70" as="geometry" />
        </mxCell>
        <mxCell id="GpJZRUMAvQBcFQaBfRYF-444" value="&lt;span style=&quot;font-size: 15px;&quot;&gt;0&lt;/span&gt;" style="rounded=1;whiteSpace=wrap;html=1;fillColor=#fff2cc;strokeColor=#000000;strokeWidth=2;" vertex="1" parent="1">
          <mxGeometry x="720" y="3585" width="80" height="70" as="geometry" />
        </mxCell>
        <mxCell id="GpJZRUMAvQBcFQaBfRYF-445" value="&lt;span style=&quot;font-size: 15px;&quot;&gt;1&lt;/span&gt;" style="rounded=1;whiteSpace=wrap;html=1;fillColor=#fff2cc;strokeColor=#000000;strokeWidth=2;" vertex="1" parent="1">
          <mxGeometry x="720" y="3495" width="80" height="70" as="geometry" />
        </mxCell>
        <mxCell id="GpJZRUMAvQBcFQaBfRYF-455" value="" style="shape=image;verticalLabelPosition=bottom;labelBackgroundColor=default;verticalAlign=top;aspect=fixed;imageAspect=0;image=data:image/png,iVBORw0KGgoAAAANSUhEUgAAAMgAAADICAYAAACtWK6eAAAAAXNSR0IArs4c6QAACIxJREFUeF7t3W1yHEUURNH2ysArM6zM2hl2R2jCQraU0zNZ2dlV138IguI9c98cxIcIvmz8SBX4e9u276ZlX7dtezHNYswnBb5QJ1YAILHUvkUA8bVUkwCiChX+doDkjgKQXGvbJoDYUspBAJGJ+h4AJHcTgORa2zYBxJZSDgKITNT3ACC5mwAk19q2CSC2lHIQQGSivgcAyd0EILnWtk0AsaWUgwAiE/U9AEjuJgDJtbZtAogtpRwEEJmo7wFAcjcBSK61bRNAbCnlIIDIRH0PAJK7CUByrW2bAGJLKQcBRCbqewCQ3E0Akmtt2wQQW0o5CCAyUd8DgORuApBca9smgNhSykEAkYn6HgAkdxOA5FrbNgHEllIOAohM1PcAILmbACTX2rYJILaUchBAZKK+BwDJ3QQguda2TQCxpZSDACIT9T0ASO4mAMm1tm0CiC2lHAQQmajvAUByNwFIrrVtE0BsKeUggMhEfQ8AkrsJQHKtbZsAYkspBwFEJup7AJDcTQCSa23bBBBbSjkIIDJR3wOA5G4CkFxr2yaA2FLKQQCRifoeACR3E4DkWts2AcSWUg4CiEzU9wAguZsAJNfatgkgtpRyEEBkor4HAMndBCC51rZNALGllIMAIhP1PQBI7iYAybW2bQKILaUcBBCZqO8BQHI3AUiutW0TQGwp5SCAyER9DwCSuwlAcq1tmwBiSykHAUQm6nsAkNxNAJJrbdsEEFtKOQggMlHfA4DkbgKQXGvbJoDYUspBAJGJ+h4AJHcTgORa2zYBxJZSDgKITNT3ACC5mwAk19q2CSC2lHIQQGSivgcAyd0EILnWtk0AsaWUgwAiE/U9AEjuJgDJtbZtAogtpRwEEJmo7wFAcjcBSK61bRNAbCnlIIDIRH0PAJK7CUByrW2bAGJLKQcBRCbqewCQ3E0Akmtt2wQQW0o5CCAyUd8DgORuApBca9smgNhSykEAkYn6HgAkdxOA5FrbNgHEllIOAohM1PcAILmbACTX2rYJILaUchBAZKK+BwDJ3QQguda2TQCxpZSDACIT9T0ASO4mAMm1tm0CiC2lHAQQmajvAUByNwFIrrVtE0BsKeUggMhEfQ8AkrsJQHKtbZsAYkspBwFEJup7AJDcTQCSa23bBBBbSjkIIDJR3wOA5G4CkFxr2yaA2FLKQQCRifoeACR3E4DkWts2AcSWUg4CiEzU9wAguZsAJNfatgkgtpRyEEBkor4HAMndBCC51rZNALGllIMAIhP1PQBI7iYAybW2bQKILaUcBBCZqO8BQHI3AUiutW0TQGwp5SCAyER9DwCSuwlAcq1tmwBiSykHAUQm6nsAkNxNAJJrbdsEEFtKOQggMlHfA4DkbgKQXGvbJoDYUspBAJGJ+h4AJHcTgORa2zYBxJZSDgKITNT3ACC5mwAk19q2CSC2lHIQQGSivgcAyd0EILnWtk0AsaWUgwAiE/U9AEjuJgDJtbZtAogtpRwEEJmo7wFAcjcBSK61bRNAbCnlIIDIRH0PAJK7CUByrW2bAGJLKQcBRCbqewCQ3E0Akmtt2wQQW0o5CCAyUd8DgORuApBca9smgNhSykEAkYn6HgAkdxOA5FrbNgHEllIOAohM1PcAILmbACTX2rYJILaUchBAZKK+BwDJ3QQguda2TQCxpZSDACIT9T0ASO4mAMm1tm0CiC2lHAQQmajvAUByNwFIrrVtE0BsKeUggMhEfQ8AkrsJQHKtbZsAYkspBwFEJup7AJDcTQCSa23bBBBbSjkIIDJR3wOA5G4CkFxr2yaA2FLKQQCRifoeACR3E4DkWts2AcSWUg4CiEzU9wAguZsAJNfatgkgtpRyEEBkor4HAMndBCC51rZNqwHZP6QvtnrHBgHkWK+K1ysB+Wfbtm+vQL6eUH8GIN9/9tv/OP792W/vOf2PVYDccNwOun8VSSO5OpAbjlvDJZCsAOQ9jrOQXBnIexzLIJkdyEc4zkByVSAf4VgCycxAFI40kisCUTimRzIrkHtxJJFcDci9OKZGMiOQozhSSK4E5CiOaZHMBuRRHAkkVwHyKI4pkcwE5Fkco5FcAcizOKZDMgsQF46RSNqBuHBMhWQGIG4co5A0A3HjmAbJ1YGMwjECSSuQUTimQHJ1IP8FvhnI9W0pjUBG47idZ/+2nrO+SfSpj8jVgYz+CuL8StIGJIXj0t+zdXUg+wf4KkiagIDjzq8rMwC5CpIWIOC4E8f+bBYgV0DSAAQcB3DMBqQdydlAwHEQx4xAmpGcCQQcD+CYFUgrkrOAgONBHDMDaURyBhBwPIFjdiBtSNJAwPEkjhWANCFJAgGHAccqQFqQpICAw4RjJSANSBJAwGHEsRqQs5GMBgIOM44VgZyJZCQQcAzAsSqQs5CMAgKOQThWBnIGEud3Hd++hRwcA3GsDiSJZPAZh46/9H/P8WyZmb6b99EWzj+zP/pzaP39lsbBV5BfH0uQ/E50eRwA+f+HAiS/eoDjtQV/iQWS9187wPGmCEB+/0uLlb+SgOPd5wEgf/7b4xWRgOMPnwWAfPzPj1ZCAo4PPgcA+fwfsK6ABByffAYAov8NxMxIwCHuDxANZNZ/4w6OO24PkDsivT6Z6SsJOO68O0DuDDUREnAcuDlADsSaAAk4Dt4bIAeDXRgJOB64NUAeiHZBJOB48M4AeTDchZCA44kbA+SJeBdAAo4n7wuQJwMWIwGH4bYAMUQsRAIO010BYgpZhAQcxpsCxBizAAk4zPcEiDnoiUjAMeCWABkQ9QQk4Bh0R4AMChtEAo6BNwTIwLgBJOAYfD+ADA48EAk4ArcDSCDyACTgCN0NIKHQRiTgCN4MIMHYBiTgCN8LIOHgb9Yd+U94X7Zt23Hsv+RHsABAgrE/WLVD+ev1t+3/k539xw3CjuLtr5//s13sZ/AD8UgH508fjFgAAAAASUVORK5CYII=;rotation=-90;" vertex="1" parent="1">
          <mxGeometry x="590" y="3030" width="120" height="120" as="geometry" />
        </mxCell>
        <mxCell id="GpJZRUMAvQBcFQaBfRYF-456" value="A" style="text;html=1;strokeColor=none;fillColor=none;align=center;verticalAlign=middle;whiteSpace=wrap;rounded=0;fontSize=25;fontStyle=1" vertex="1" parent="1">
          <mxGeometry x="50" y="3060" width="60" height="30" as="geometry" />
        </mxCell>
        <mxCell id="GpJZRUMAvQBcFQaBfRYF-457" value="A" style="text;html=1;strokeColor=none;fillColor=none;align=center;verticalAlign=middle;whiteSpace=wrap;rounded=0;fontSize=25;fontStyle=1" vertex="1" parent="1">
          <mxGeometry x="620" y="3655" width="60" height="30" as="geometry" />
        </mxCell>
        <mxCell id="GpJZRUMAvQBcFQaBfRYF-458" value="-1" style="text;html=1;strokeColor=none;fillColor=none;align=center;verticalAlign=middle;whiteSpace=wrap;rounded=0;fontSize=25;fontStyle=1" vertex="1" parent="1">
          <mxGeometry x="640" y="3645" width="60" height="30" as="geometry" />
        </mxCell>
        <mxCell id="GpJZRUMAvQBcFQaBfRYF-467" value="&lt;span style=&quot;font-size: 15px;&quot;&gt;0&lt;/span&gt;" style="rounded=1;whiteSpace=wrap;html=1;fillColor=#fff2cc;strokeColor=#000000;strokeWidth=2;" vertex="1" parent="1">
          <mxGeometry x="1010" y="3765" width="80" height="70" as="geometry" />
        </mxCell>
        <mxCell id="GpJZRUMAvQBcFQaBfRYF-468" value="&lt;span style=&quot;font-size: 15px;&quot;&gt;1&lt;/span&gt;" style="rounded=1;whiteSpace=wrap;html=1;fillColor=#79D8CE;strokeColor=#000000;strokeWidth=2;" vertex="1" parent="1">
          <mxGeometry x="1010" y="3675" width="80" height="70" as="geometry" />
        </mxCell>
        <mxCell id="GpJZRUMAvQBcFQaBfRYF-469" value="&lt;span style=&quot;font-size: 15px;&quot;&gt;1&lt;/span&gt;" style="rounded=1;whiteSpace=wrap;html=1;fillColor=#fff2cc;strokeColor=#000000;strokeWidth=2;" vertex="1" parent="1">
          <mxGeometry x="914" y="3765" width="80" height="70" as="geometry" />
        </mxCell>
        <mxCell id="GpJZRUMAvQBcFQaBfRYF-470" value="&lt;span style=&quot;font-size: 15px;&quot;&gt;1&lt;/span&gt;" style="rounded=1;whiteSpace=wrap;html=1;fillColor=#fff2cc;strokeColor=#000000;strokeWidth=2;" vertex="1" parent="1">
          <mxGeometry x="914" y="3675" width="80" height="70" as="geometry" />
        </mxCell>
        <mxCell id="GpJZRUMAvQBcFQaBfRYF-471" value="&lt;span style=&quot;font-size: 15px;&quot;&gt;0&lt;/span&gt;" style="rounded=1;whiteSpace=wrap;html=1;fillColor=#fff2cc;strokeColor=#000000;strokeWidth=2;" vertex="1" parent="1">
          <mxGeometry x="816" y="3765" width="80" height="70" as="geometry" />
        </mxCell>
        <mxCell id="GpJZRUMAvQBcFQaBfRYF-472" value="&lt;span style=&quot;font-size: 15px;&quot;&gt;1&lt;/span&gt;" style="rounded=1;whiteSpace=wrap;html=1;fillColor=#79D8CE;strokeColor=#000000;strokeWidth=2;" vertex="1" parent="1">
          <mxGeometry x="816" y="3675" width="80" height="70" as="geometry" />
        </mxCell>
        <mxCell id="GpJZRUMAvQBcFQaBfRYF-473" value="&lt;span style=&quot;font-size: 15px;&quot;&gt;0&lt;/span&gt;" style="rounded=1;whiteSpace=wrap;html=1;fillColor=#fff2cc;strokeColor=#000000;strokeWidth=2;" vertex="1" parent="1">
          <mxGeometry x="720" y="3765" width="80" height="70" as="geometry" />
        </mxCell>
        <mxCell id="GpJZRUMAvQBcFQaBfRYF-474" value="&lt;span style=&quot;font-size: 15px;&quot;&gt;0&lt;/span&gt;" style="rounded=1;whiteSpace=wrap;html=1;fillColor=#fff2cc;strokeColor=#000000;strokeWidth=2;" vertex="1" parent="1">
          <mxGeometry x="720" y="3675" width="80" height="70" as="geometry" />
        </mxCell>
        <mxCell id="GpJZRUMAvQBcFQaBfRYF-505" value="&lt;span style=&quot;font-size: 15px;&quot;&gt;A&lt;/span&gt;" style="rounded=1;whiteSpace=wrap;html=1;fillColor=#fff2cc;strokeColor=#000000;strokeWidth=2;" vertex="1" parent="1">
          <mxGeometry x="1590" y="3590" width="80" height="70" as="geometry" />
        </mxCell>
        <mxCell id="GpJZRUMAvQBcFQaBfRYF-506" value="&lt;span style=&quot;font-size: 15px;&quot;&gt;B1&lt;/span&gt;" style="rounded=1;whiteSpace=wrap;html=1;fillColor=#79D8CE;strokeColor=#000000;strokeWidth=2;" vertex="1" parent="1">
          <mxGeometry x="1590" y="3680" width="80" height="70" as="geometry" />
        </mxCell>
        <mxCell id="GpJZRUMAvQBcFQaBfRYF-507" value="&lt;span style=&quot;font-size: 15px;&quot;&gt;D&lt;/span&gt;" style="rounded=1;whiteSpace=wrap;html=1;fillColor=#fff2cc;strokeColor=#000000;strokeWidth=2;" vertex="1" parent="1">
          <mxGeometry x="1590" y="3500" width="80" height="70" as="geometry" />
        </mxCell>
        <mxCell id="GpJZRUMAvQBcFQaBfRYF-508" value="&lt;span style=&quot;font-size: 15px;&quot;&gt;C1&lt;/span&gt;" style="rounded=1;whiteSpace=wrap;html=1;fillColor=#79D8CE;strokeColor=#000000;strokeWidth=2;" vertex="1" parent="1">
          <mxGeometry x="1590" y="3770" width="80" height="70" as="geometry" />
        </mxCell>
        <mxCell id="GpJZRUMAvQBcFQaBfRYF-509" value="" style="shape=image;verticalLabelPosition=bottom;labelBackgroundColor=default;verticalAlign=top;aspect=fixed;imageAspect=0;image=data:image/png,iVBORw0KGgoAAAANSUhEUgAAAMgAAADICAYAAACtWK6eAAAAAXNSR0IArs4c6QAACRJJREFUeF7tnU1220gMBqUzUfvYJ4vnZNHsyTNxTEea0Ap/uoEmuwFU3pvVEBJRH0ogZdm6XvgHAQisErjCBgIQWCeAIEwHBDYIIAjjAQEEYQYgICPABpFxoyoIAQQJEjRtygggiIwbVUEIIEiQoGlTRgBBZNyoCkIAQYIETZsyAggi40ZVEAIIEiRo2pQRQBAZN6qCEECQIEHTpowAgsi4URWEAIIECZo2ZQQQRMaNqiAEECRI0LQpI4AgMm5UBSGAIEGCpk0ZAQSRcaMqCAEECRI0bcoIIIiMG1VBCCBIkKBpU0YAQWTcqApCAEGCBE2bMgIIIuNGVRACCBIkaNqUEUAQGTeqghBAkCBB06aMAILIuFEVhACCBAmaNmUEEETGjaogBBAkSNC0KSOAIDJuVAUhgCBBgqZNGQEEkXGjKggBBAkSNG3KCCCIjBtVQQggSJCgaVNGAEFk3KgKQsCVILfb7WMht3vf9/cgeZ7a5u12e7tcLtN/839frL0wNy/IJMU4jj8WgvqW2vV6/afv+yWBTh0qD0/2YP5zp5f7g7npFyfTgnRd92tPjNcQEUWuaKIYr09gWhSTgkyr/XNrTHKI/iFJPjahHP8/0fV6fbd42WVOEK0cz8SQJF0SrRwz5uYkMSeI5LJqbRSQZF+SUnI8n2kYBlMzZ+pkS4c1hYYk65LA+3IxJUjXdeP+a17+EUjyN7Mj5LC4RcwIUureg8ut/ReQI+WwtrXNCFLy3gNJzr2ssvxWO4K8pBf5cuvozTFDfR+G4X1/l9U/wpIgh9x/LEUQUZIT5fhCbuXdLARZeZGKJMnZciDIAZvxqHewtk41giQ15Pj8eBCXWKUdOeMmPdrlViU5JswIUlqQimG6/GFiZZ5mPnJi5h5kEq7GZdbsc0RuPi5fU47Hz0EQpPQGmR6vgWDNS1KboaXLqy+ZjxjkIx+z5hax9lPg1xwakGO6XDWzPUwK0kjI5jZJI9xMyWFSkBYutaxtkkbkMPeiYlYQJEm/iEWOdFaLb/PryutWE/42f/jo59PcTXqjN57NXT4gh14O05dY8/YZhu/DAI8ycrgRhHuSPwOBHOXkcCUIktT/Qaq1d/dSVDJ/D8I9yW8CbI6Ucc8/xp0gEYcFOfIHP7XCpSCRJEGO1FGXHedWkAiSIIds6HOqXAviWRLkyBlz+bHuBfEoCXLIBz63MoQgniRBjtwR1x0fRhAPkiCHbtgl1aEEsSwJckjGW18TThCLkiCHftCljxBSEEuSIId0tMvUhRXEgiTIUWbINY8SWpCWJUEOzViXqw0vSIuSIEe5Adc+EoI8CLYylNPpjOO49x3k2tw36yP8TeJUgAgyI9WCJKnBHXUccnwniyAvkxZZEuT4+2UHQRZeiiNKghzLOxlBVq5VIkmCHOsXrAiycTEfQRLk2L6bQ5Cdu13PkiDH/lsdCLLPqIk/iJBwmlmHIEcaLgRJ4+RKEuRIDN3i94Okt1b+SA+XW8iRNxdskDxepjcJcmSGzQbJBzZVWNwkyCHLmg0i42ZKEuQQhswGkYOzskmQQ5cxG0THr+lNghzKcNkgeoCtbhLkKJMtG6QMx6Y2CXIUCpUNUg7kY5Pcx3H8UfZR8x7t83vI/+37/i2viqPXCLBBCs1GS2/9skEKhcoGKQOyJTmeHSFJmWzZIEqOLcqBJMpQZ+UIomDZshxIoggWQfTwLMiBJPqc2SAChpbkQBJBwGwQOTSLciCJPG82SAY7y3IgSUbQbJB8WB7kQJL83NkgCcw8yYEkCYGzQdIheZQDSdLzZ4NssPIsB5KkSYIgK5wiyIEk+5IgyAKjSHIgybYkCPLCJ6IcSLIuCYLM2ESWA0mWJUGQB5cW5Jg+oj6dDt8wtX9vcNYRCNLI37ma//5GK7L2ff9x1iC2+jzhBWl1GFs9r1YH+ajzCi1I60PY+vkdNZQtPW5YQawMn5XzbGmoS55LSEGsDZ218y05oLUfK5wgVofN6nnXHnDt84cSxPqQWT9/7bDWqA8jiJfh8tJHjWGXPGcIQbwNlbd+JIN7Vo17QbwOk9e+zhr81OdxLYj3IfLeX+oQH3mcW0GiDE+UPo+UYOuxXQoSbWii9XumLO4EiTosUfs+WhZXgkQfkuj9HyGLG0EYjt/jAYeymrgQhKH4PhTwKCeJeUEYhuVhgEsZSUwLwhBsDwF89JKYFYTw08KHUxqntaNMCkLoeaHDK4/X/GhzghC2LGy4ybiZEuR2u719fg/5L1mrZaosf3sskuTPgClBuq6b5HjLb7NMhWU5ngRqS2KNoRlBam8Pa8FuvSQ0IMl73/f3Mi9bxz6KJUE+av3FQU9ytLBJLPE0I0ityytLYea+llbcJPdhGN5zz7fG8ZYEGc8G5FmO2ptkGAYTs2fiJKcwu647VZAIctSUBEEKv9yfKUgkOWpJgiDlBTnlLd6IclSQhHuQwn6c8nsOkeU4WRIEsSYIcvxJ7Oh3t67XKz8HKS3IkTfqyPF3WgdKYmZ7TFTMvIs1newRoSHH+kvZQbzNbA9zgjy2SLGbdeTY3/OFJTG1PUwKUupSCzn25Sh8425ODrOCPD64+FP6yV7kSJejkCQm5TAriCK0+0MOE58kzR/jYyskL0zWX4xM3aQvxT8Lbfrfi78r8vz+cb7WuIxAKaJYF+NJyrwg88in4F5HwMrvHZQZ3fMfZcZ8Yv+1mT0xdyXI+ePBM3ongCDeE6Y/FQEEUeGj2DsBBPGeMP2pCCCICh/F3gkgiPeE6U9FAEFU+Cj2TgBBvCdMfyoCCKLCR7F3AgjiPWH6UxFAEBU+ir0TQBDvCdOfigCCqPBR7J0AgnhPmP5UBBBEhY9i7wQQxHvC9KcigCAqfBR7J4Ag3hOmPxUBBFHho9g7AQTxnjD9qQggiAofxd4JIIj3hOlPRQBBVPgo9k4AQbwnTH8qAgiiwkexdwII4j1h+lMRQBAVPoq9E0AQ7wnTn4oAgqjwUeydAIJ4T5j+VAQQRIWPYu8EEMR7wvSnIoAgKnwUeyeAIN4Tpj8VAQRR4aPYOwEE8Z4w/akIIIgKH8XeCSCI94TpT0UAQVT4KPZOAEG8J0x/KgIIosJHsXcC/wGTS/QUNGFPSAAAAABJRU5ErkJggg==;" vertex="1" parent="1">
          <mxGeometry x="1150" y="3614.5" width="91" height="91" as="geometry" />
        </mxCell>
        <mxCell id="GpJZRUMAvQBcFQaBfRYF-521" value="&lt;span style=&quot;font-size: 15px;&quot;&gt;0&lt;/span&gt;" style="rounded=1;whiteSpace=wrap;html=1;fillColor=#fff2cc;strokeColor=#000000;strokeWidth=2;" vertex="1" parent="1">
          <mxGeometry x="1160" y="2995" width="80" height="70" as="geometry" />
        </mxCell>
        <mxCell id="GpJZRUMAvQBcFQaBfRYF-522" value="&lt;span style=&quot;font-size: 15px;&quot;&gt;1&lt;/span&gt;" style="rounded=1;whiteSpace=wrap;html=1;fillColor=#79D8CE;strokeColor=#000000;strokeWidth=2;" vertex="1" parent="1">
          <mxGeometry x="1160" y="2905" width="80" height="70" as="geometry" />
        </mxCell>
        <mxCell id="GpJZRUMAvQBcFQaBfRYF-523" value="&lt;span style=&quot;font-size: 15px;&quot;&gt;0&lt;/span&gt;" style="rounded=1;whiteSpace=wrap;html=1;fillColor=#fff2cc;strokeColor=#000000;strokeWidth=2;" vertex="1" parent="1">
          <mxGeometry x="1064" y="2995" width="80" height="70" as="geometry" />
        </mxCell>
        <mxCell id="GpJZRUMAvQBcFQaBfRYF-524" value="&lt;span style=&quot;font-size: 15px;&quot;&gt;1&lt;/span&gt;" style="rounded=1;whiteSpace=wrap;html=1;fillColor=#fff2cc;strokeColor=#000000;strokeWidth=2;" vertex="1" parent="1">
          <mxGeometry x="1064" y="2905" width="80" height="70" as="geometry" />
        </mxCell>
        <mxCell id="GpJZRUMAvQBcFQaBfRYF-525" value="&lt;span style=&quot;font-size: 15px;&quot;&gt;0&lt;/span&gt;" style="rounded=1;whiteSpace=wrap;html=1;fillColor=#79D8CE;strokeColor=#000000;strokeWidth=2;" vertex="1" parent="1">
          <mxGeometry x="966" y="2995" width="80" height="70" as="geometry" />
        </mxCell>
        <mxCell id="GpJZRUMAvQBcFQaBfRYF-526" value="&lt;span style=&quot;font-size: 15px;&quot;&gt;1&lt;/span&gt;" style="rounded=1;whiteSpace=wrap;html=1;fillColor=#fff2cc;strokeColor=#000000;strokeWidth=2;" vertex="1" parent="1">
          <mxGeometry x="966" y="2905" width="80" height="70" as="geometry" />
        </mxCell>
        <mxCell id="GpJZRUMAvQBcFQaBfRYF-527" value="&lt;span style=&quot;font-size: 15px;&quot;&gt;0&lt;/span&gt;" style="rounded=1;whiteSpace=wrap;html=1;fillColor=#fff2cc;strokeColor=#000000;strokeWidth=2;" vertex="1" parent="1">
          <mxGeometry x="870" y="2995" width="80" height="70" as="geometry" />
        </mxCell>
        <mxCell id="GpJZRUMAvQBcFQaBfRYF-528" value="&lt;span style=&quot;font-size: 15px;&quot;&gt;1&lt;/span&gt;" style="rounded=1;whiteSpace=wrap;html=1;fillColor=#fff2cc;strokeColor=#000000;strokeWidth=2;" vertex="1" parent="1">
          <mxGeometry x="870" y="2905" width="80" height="70" as="geometry" />
        </mxCell>
        <mxCell id="GpJZRUMAvQBcFQaBfRYF-529" value="A" style="text;html=1;strokeColor=none;fillColor=none;align=center;verticalAlign=middle;whiteSpace=wrap;rounded=0;fontSize=25;fontStyle=1" vertex="1" parent="1">
          <mxGeometry x="770" y="3065" width="60" height="30" as="geometry" />
        </mxCell>
        <mxCell id="GpJZRUMAvQBcFQaBfRYF-530" value="-1" style="text;html=1;strokeColor=none;fillColor=none;align=center;verticalAlign=middle;whiteSpace=wrap;rounded=0;fontSize=25;fontStyle=1" vertex="1" parent="1">
          <mxGeometry x="790" y="3055" width="60" height="30" as="geometry" />
        </mxCell>
        <mxCell id="GpJZRUMAvQBcFQaBfRYF-531" value="&lt;span style=&quot;font-size: 15px;&quot;&gt;0&lt;/span&gt;" style="rounded=1;whiteSpace=wrap;html=1;fillColor=#fff2cc;strokeColor=#000000;strokeWidth=2;" vertex="1" parent="1">
          <mxGeometry x="1160" y="3175" width="80" height="70" as="geometry" />
        </mxCell>
        <mxCell id="GpJZRUMAvQBcFQaBfRYF-532" value="&lt;span style=&quot;font-size: 15px;&quot;&gt;1&lt;/span&gt;" style="rounded=1;whiteSpace=wrap;html=1;fillColor=#79D8CE;strokeColor=#000000;strokeWidth=2;" vertex="1" parent="1">
          <mxGeometry x="1160" y="3085" width="80" height="70" as="geometry" />
        </mxCell>
        <mxCell id="GpJZRUMAvQBcFQaBfRYF-533" value="&lt;span style=&quot;font-size: 15px;&quot;&gt;1&lt;/span&gt;" style="rounded=1;whiteSpace=wrap;html=1;fillColor=#fff2cc;strokeColor=#000000;strokeWidth=2;" vertex="1" parent="1">
          <mxGeometry x="1064" y="3175" width="80" height="70" as="geometry" />
        </mxCell>
        <mxCell id="GpJZRUMAvQBcFQaBfRYF-534" value="&lt;span style=&quot;font-size: 15px;&quot;&gt;1&lt;/span&gt;" style="rounded=1;whiteSpace=wrap;html=1;fillColor=#fff2cc;strokeColor=#000000;strokeWidth=2;" vertex="1" parent="1">
          <mxGeometry x="1064" y="3085" width="80" height="70" as="geometry" />
        </mxCell>
        <mxCell id="GpJZRUMAvQBcFQaBfRYF-535" value="&lt;span style=&quot;font-size: 15px;&quot;&gt;0&lt;/span&gt;" style="rounded=1;whiteSpace=wrap;html=1;fillColor=#fff2cc;strokeColor=#000000;strokeWidth=2;" vertex="1" parent="1">
          <mxGeometry x="966" y="3175" width="80" height="70" as="geometry" />
        </mxCell>
        <mxCell id="GpJZRUMAvQBcFQaBfRYF-536" value="&lt;span style=&quot;font-size: 15px;&quot;&gt;1&lt;/span&gt;" style="rounded=1;whiteSpace=wrap;html=1;fillColor=#79D8CE;strokeColor=#000000;strokeWidth=2;" vertex="1" parent="1">
          <mxGeometry x="966" y="3085" width="80" height="70" as="geometry" />
        </mxCell>
        <mxCell id="GpJZRUMAvQBcFQaBfRYF-537" value="&lt;span style=&quot;font-size: 15px;&quot;&gt;0&lt;/span&gt;" style="rounded=1;whiteSpace=wrap;html=1;fillColor=#fff2cc;strokeColor=#000000;strokeWidth=2;" vertex="1" parent="1">
          <mxGeometry x="870" y="3175" width="80" height="70" as="geometry" />
        </mxCell>
        <mxCell id="GpJZRUMAvQBcFQaBfRYF-538" value="&lt;span style=&quot;font-size: 15px;&quot;&gt;0&lt;/span&gt;" style="rounded=1;whiteSpace=wrap;html=1;fillColor=#fff2cc;strokeColor=#000000;strokeWidth=2;" vertex="1" parent="1">
          <mxGeometry x="870" y="3085" width="80" height="70" as="geometry" />
        </mxCell>
        <mxCell id="GpJZRUMAvQBcFQaBfRYF-540" value="&lt;span style=&quot;font-size: 15px;&quot;&gt;0&lt;/span&gt;" style="rounded=1;whiteSpace=wrap;html=1;fillColor=#fff2cc;strokeColor=#000000;strokeWidth=2;" vertex="1" parent="1">
          <mxGeometry x="420" y="3575" width="80" height="70" as="geometry" />
        </mxCell>
        <mxCell id="GpJZRUMAvQBcFQaBfRYF-541" value="&lt;span style=&quot;font-size: 15px;&quot;&gt;A&lt;/span&gt;" style="rounded=1;whiteSpace=wrap;html=1;fillColor=#79D8CE;strokeColor=#000000;strokeWidth=2;" vertex="1" parent="1">
          <mxGeometry x="130" y="3665" width="80" height="70" as="geometry" />
        </mxCell>
        <mxCell id="GpJZRUMAvQBcFQaBfRYF-542" value="&lt;span style=&quot;font-size: 15px;&quot;&gt;1&lt;/span&gt;" style="rounded=1;whiteSpace=wrap;html=1;fillColor=#fff2cc;strokeColor=#000000;strokeWidth=2;" vertex="1" parent="1">
          <mxGeometry x="420" y="3485" width="80" height="70" as="geometry" />
        </mxCell>
        <mxCell id="GpJZRUMAvQBcFQaBfRYF-543" value="&lt;span style=&quot;font-size: 15px;&quot;&gt;0&lt;/span&gt;" style="rounded=1;whiteSpace=wrap;html=1;fillColor=#fff2cc;strokeColor=#000000;strokeWidth=2;" vertex="1" parent="1">
          <mxGeometry x="324" y="3575" width="80" height="70" as="geometry" />
        </mxCell>
        <mxCell id="GpJZRUMAvQBcFQaBfRYF-544" value="&lt;span style=&quot;font-size: 15px;&quot;&gt;1&lt;/span&gt;" style="rounded=1;whiteSpace=wrap;html=1;fillColor=#fff2cc;strokeColor=#000000;strokeWidth=2;" vertex="1" parent="1">
          <mxGeometry x="324" y="3485" width="80" height="70" as="geometry" />
        </mxCell>
        <mxCell id="GpJZRUMAvQBcFQaBfRYF-545" value="&lt;span style=&quot;font-size: 15px;&quot;&gt;0&lt;/span&gt;" style="rounded=1;whiteSpace=wrap;html=1;fillColor=#fff2cc;strokeColor=#000000;strokeWidth=2;" vertex="1" parent="1">
          <mxGeometry x="226" y="3575" width="80" height="70" as="geometry" />
        </mxCell>
        <mxCell id="GpJZRUMAvQBcFQaBfRYF-546" value="&lt;span style=&quot;font-size: 15px;&quot;&gt;1&lt;/span&gt;" style="rounded=1;whiteSpace=wrap;html=1;fillColor=#fff2cc;strokeColor=#000000;strokeWidth=2;" vertex="1" parent="1">
          <mxGeometry x="226" y="3485" width="80" height="70" as="geometry" />
        </mxCell>
        <mxCell id="GpJZRUMAvQBcFQaBfRYF-547" value="&lt;span style=&quot;font-size: 15px;&quot;&gt;0&lt;/span&gt;" style="rounded=1;whiteSpace=wrap;html=1;fillColor=#fff2cc;strokeColor=#000000;strokeWidth=2;" vertex="1" parent="1">
          <mxGeometry x="130" y="3575" width="80" height="70" as="geometry" />
        </mxCell>
        <mxCell id="GpJZRUMAvQBcFQaBfRYF-548" value="&lt;span style=&quot;font-size: 15px;&quot;&gt;1&lt;/span&gt;" style="rounded=1;whiteSpace=wrap;html=1;fillColor=#fff2cc;strokeColor=#000000;strokeWidth=2;" vertex="1" parent="1">
          <mxGeometry x="130" y="3485" width="80" height="70" as="geometry" />
        </mxCell>
        <mxCell id="GpJZRUMAvQBcFQaBfRYF-549" value="&lt;span style=&quot;font-size: 15px;&quot;&gt;E&lt;/span&gt;" style="rounded=1;whiteSpace=wrap;html=1;fillColor=#79D8CE;strokeColor=#000000;strokeWidth=2;" vertex="1" parent="1">
          <mxGeometry x="130" y="3765" width="80" height="70" as="geometry" />
        </mxCell>
        <mxCell id="GpJZRUMAvQBcFQaBfRYF-550" value="&lt;span style=&quot;font-size: 15px;&quot;&gt;B&lt;/span&gt;" style="rounded=1;whiteSpace=wrap;html=1;fillColor=#79D8CE;strokeColor=#000000;strokeWidth=2;" vertex="1" parent="1">
          <mxGeometry x="226" y="3665" width="80" height="70" as="geometry" />
        </mxCell>
        <mxCell id="GpJZRUMAvQBcFQaBfRYF-551" value="&lt;span style=&quot;font-size: 15px;&quot;&gt;F&lt;/span&gt;" style="rounded=1;whiteSpace=wrap;html=1;fillColor=#79D8CE;strokeColor=#000000;strokeWidth=2;" vertex="1" parent="1">
          <mxGeometry x="226" y="3765" width="80" height="70" as="geometry" />
        </mxCell>
        <mxCell id="GpJZRUMAvQBcFQaBfRYF-552" value="&lt;span style=&quot;font-size: 15px;&quot;&gt;C&lt;/span&gt;" style="rounded=1;whiteSpace=wrap;html=1;fillColor=#79D8CE;strokeColor=#000000;strokeWidth=2;" vertex="1" parent="1">
          <mxGeometry x="324" y="3665" width="80" height="70" as="geometry" />
        </mxCell>
        <mxCell id="GpJZRUMAvQBcFQaBfRYF-553" value="&lt;span style=&quot;font-size: 15px;&quot;&gt;G&lt;/span&gt;" style="rounded=1;whiteSpace=wrap;html=1;fillColor=#79D8CE;strokeColor=#000000;strokeWidth=2;" vertex="1" parent="1">
          <mxGeometry x="324" y="3765" width="80" height="70" as="geometry" />
        </mxCell>
        <mxCell id="GpJZRUMAvQBcFQaBfRYF-554" value="&lt;span style=&quot;font-size: 15px;&quot;&gt;D&lt;/span&gt;" style="rounded=1;whiteSpace=wrap;html=1;fillColor=#79D8CE;strokeColor=#000000;strokeWidth=2;" vertex="1" parent="1">
          <mxGeometry x="420" y="3665" width="80" height="70" as="geometry" />
        </mxCell>
        <mxCell id="GpJZRUMAvQBcFQaBfRYF-555" value="&lt;span style=&quot;font-size: 15px;&quot;&gt;H&lt;/span&gt;" style="rounded=1;whiteSpace=wrap;html=1;fillColor=#79D8CE;strokeColor=#000000;strokeWidth=2;" vertex="1" parent="1">
          <mxGeometry x="420" y="3765" width="80" height="70" as="geometry" />
        </mxCell>
        <mxCell id="GpJZRUMAvQBcFQaBfRYF-556" value="A" style="text;html=1;strokeColor=none;fillColor=none;align=center;verticalAlign=middle;whiteSpace=wrap;rounded=0;fontSize=25;fontStyle=1" vertex="1" parent="1">
          <mxGeometry x="40" y="3645" width="60" height="30" as="geometry" />
        </mxCell>
        <mxCell id="GpJZRUMAvQBcFQaBfRYF-557" value="" style="shape=image;verticalLabelPosition=bottom;labelBackgroundColor=default;verticalAlign=top;aspect=fixed;imageAspect=0;image=data:image/png,iVBORw0KGgoAAAANSUhEUgAAAMgAAADICAYAAACtWK6eAAAAAXNSR0IArs4c6QAACRJJREFUeF7tnU1220gMBqUzUfvYJ4vnZNHsyTNxTEea0Ap/uoEmuwFU3pvVEBJRH0ogZdm6XvgHAQisErjCBgIQWCeAIEwHBDYIIAjjAQEEYQYgICPABpFxoyoIAQQJEjRtygggiIwbVUEIIEiQoGlTRgBBZNyoCkIAQYIETZsyAggi40ZVEAIIEiRo2pQRQBAZN6qCEECQIEHTpowAgsi4URWEAIIECZo2ZQQQRMaNqiAEECRI0LQpI4AgMm5UBSGAIEGCpk0ZAQSRcaMqCAEECRI0bcoIIIiMG1VBCCBIkKBpU0YAQWTcqApCAEGCBE2bMgIIIuNGVRACCBIkaNqUEUAQGTeqghBAkCBB06aMAILIuFEVhACCBAmaNmUEEETGjaogBBAkSNC0KSOAIDJuVAUhgCBBgqZNGQEEkXGjKggBBAkSNG3KCCCIjBtVQQggSJCgaVNGAEFk3KgKQsCVILfb7WMht3vf9/cgeZ7a5u12e7tcLtN/839frL0wNy/IJMU4jj8WgvqW2vV6/afv+yWBTh0qD0/2YP5zp5f7g7npFyfTgnRd92tPjNcQEUWuaKIYr09gWhSTgkyr/XNrTHKI/iFJPjahHP8/0fV6fbd42WVOEK0cz8SQJF0SrRwz5uYkMSeI5LJqbRSQZF+SUnI8n2kYBlMzZ+pkS4c1hYYk65LA+3IxJUjXdeP+a17+EUjyN7Mj5LC4RcwIUureg8ut/ReQI+WwtrXNCFLy3gNJzr2ssvxWO4K8pBf5cuvozTFDfR+G4X1/l9U/wpIgh9x/LEUQUZIT5fhCbuXdLARZeZGKJMnZciDIAZvxqHewtk41giQ15Pj8eBCXWKUdOeMmPdrlViU5JswIUlqQimG6/GFiZZ5mPnJi5h5kEq7GZdbsc0RuPi5fU47Hz0EQpPQGmR6vgWDNS1KboaXLqy+ZjxjkIx+z5hax9lPg1xwakGO6XDWzPUwK0kjI5jZJI9xMyWFSkBYutaxtkkbkMPeiYlYQJEm/iEWOdFaLb/PryutWE/42f/jo59PcTXqjN57NXT4gh14O05dY8/YZhu/DAI8ycrgRhHuSPwOBHOXkcCUIktT/Qaq1d/dSVDJ/D8I9yW8CbI6Ucc8/xp0gEYcFOfIHP7XCpSCRJEGO1FGXHedWkAiSIIds6HOqXAviWRLkyBlz+bHuBfEoCXLIBz63MoQgniRBjtwR1x0fRhAPkiCHbtgl1aEEsSwJckjGW18TThCLkiCHftCljxBSEEuSIId0tMvUhRXEgiTIUWbINY8SWpCWJUEOzViXqw0vSIuSIEe5Adc+EoI8CLYylNPpjOO49x3k2tw36yP8TeJUgAgyI9WCJKnBHXUccnwniyAvkxZZEuT4+2UHQRZeiiNKghzLOxlBVq5VIkmCHOsXrAiycTEfQRLk2L6bQ5Cdu13PkiDH/lsdCLLPqIk/iJBwmlmHIEcaLgRJ4+RKEuRIDN3i94Okt1b+SA+XW8iRNxdskDxepjcJcmSGzQbJBzZVWNwkyCHLmg0i42ZKEuQQhswGkYOzskmQQ5cxG0THr+lNghzKcNkgeoCtbhLkKJMtG6QMx6Y2CXIUCpUNUg7kY5Pcx3H8UfZR8x7t83vI/+37/i2viqPXCLBBCs1GS2/9skEKhcoGKQOyJTmeHSFJmWzZIEqOLcqBJMpQZ+UIomDZshxIoggWQfTwLMiBJPqc2SAChpbkQBJBwGwQOTSLciCJPG82SAY7y3IgSUbQbJB8WB7kQJL83NkgCcw8yYEkCYGzQdIheZQDSdLzZ4NssPIsB5KkSYIgK5wiyIEk+5IgyAKjSHIgybYkCPLCJ6IcSLIuCYLM2ESWA0mWJUGQB5cW5Jg+oj6dDt8wtX9vcNYRCNLI37ma//5GK7L2ff9x1iC2+jzhBWl1GFs9r1YH+ajzCi1I60PY+vkdNZQtPW5YQawMn5XzbGmoS55LSEGsDZ218y05oLUfK5wgVofN6nnXHnDt84cSxPqQWT9/7bDWqA8jiJfh8tJHjWGXPGcIQbwNlbd+JIN7Vo17QbwOk9e+zhr81OdxLYj3IfLeX+oQH3mcW0GiDE+UPo+UYOuxXQoSbWii9XumLO4EiTosUfs+WhZXgkQfkuj9HyGLG0EYjt/jAYeymrgQhKH4PhTwKCeJeUEYhuVhgEsZSUwLwhBsDwF89JKYFYTw08KHUxqntaNMCkLoeaHDK4/X/GhzghC2LGy4ybiZEuR2u719fg/5L1mrZaosf3sskuTPgClBuq6b5HjLb7NMhWU5ngRqS2KNoRlBam8Pa8FuvSQ0IMl73/f3Mi9bxz6KJUE+av3FQU9ytLBJLPE0I0ityytLYea+llbcJPdhGN5zz7fG8ZYEGc8G5FmO2ptkGAYTs2fiJKcwu647VZAIctSUBEEKv9yfKUgkOWpJgiDlBTnlLd6IclSQhHuQwn6c8nsOkeU4WRIEsSYIcvxJ7Oh3t67XKz8HKS3IkTfqyPF3WgdKYmZ7TFTMvIs1newRoSHH+kvZQbzNbA9zgjy2SLGbdeTY3/OFJTG1PUwKUupSCzn25Sh8425ODrOCPD64+FP6yV7kSJejkCQm5TAriCK0+0MOE58kzR/jYyskL0zWX4xM3aQvxT8Lbfrfi78r8vz+cb7WuIxAKaJYF+NJyrwg88in4F5HwMrvHZQZ3fMfZcZ8Yv+1mT0xdyXI+ePBM3ongCDeE6Y/FQEEUeGj2DsBBPGeMP2pCCCICh/F3gkgiPeE6U9FAEFU+Cj2TgBBvCdMfyoCCKLCR7F3AgjiPWH6UxFAEBU+ir0TQBDvCdOfigCCqPBR7J0AgnhPmP5UBBBEhY9i7wQQxHvC9KcigCAqfBR7J4Ag3hOmPxUBBFHho9g7AQTxnjD9qQggiAofxd4JIIj3hOlPRQBBVPgo9k4AQbwnTH8qAgiiwkexdwII4j1h+lMRQBAVPoq9E0AQ7wnTn4oAgqjwUeydAIJ4T5j+VAQQRIWPYu8EEMR7wvSnIoAgKnwUeyeAIN4Tpj8VAQRR4aPYOwEE8Z4w/akIIIgKH8XeCSCI94TpT0UAQVT4KPZOAEG8J0x/KgIIosJHsXcC/wGTS/QUNGFPSAAAAABJRU5ErkJggg==;" vertex="1" parent="1">
          <mxGeometry x="539" y="3614.5" width="91" height="91" as="geometry" />
        </mxCell>
        <mxCell id="GpJZRUMAvQBcFQaBfRYF-558" value="&lt;span style=&quot;font-size: 15px;&quot;&gt;A&lt;/span&gt;" style="rounded=1;whiteSpace=wrap;html=1;fillColor=#fff2cc;strokeColor=#000000;strokeWidth=2;" vertex="1" parent="1">
          <mxGeometry x="1280" y="3585" width="80" height="70" as="geometry" />
        </mxCell>
        <mxCell id="GpJZRUMAvQBcFQaBfRYF-559" value="&lt;span style=&quot;font-size: 15px;&quot;&gt;T&lt;/span&gt;" style="rounded=1;whiteSpace=wrap;html=1;fillColor=#fff2cc;strokeColor=#000000;strokeWidth=2;" vertex="1" parent="1">
          <mxGeometry x="1280" y="3675" width="80" height="70" as="geometry" />
        </mxCell>
        <mxCell id="GpJZRUMAvQBcFQaBfRYF-560" value="&lt;span style=&quot;font-size: 15px;&quot;&gt;D&lt;/span&gt;" style="rounded=1;whiteSpace=wrap;html=1;fillColor=#fff2cc;strokeColor=#000000;strokeWidth=2;" vertex="1" parent="1">
          <mxGeometry x="1280" y="3495" width="80" height="70" as="geometry" />
        </mxCell>
        <mxCell id="GpJZRUMAvQBcFQaBfRYF-561" value="&lt;span style=&quot;font-size: 15px;&quot;&gt;A&lt;/span&gt;" style="rounded=1;whiteSpace=wrap;html=1;fillColor=#fff2cc;strokeColor=#000000;strokeWidth=2;" vertex="1" parent="1">
          <mxGeometry x="1280" y="3765" width="80" height="70" as="geometry" />
        </mxCell>
        <mxCell id="GpJZRUMAvQBcFQaBfRYF-562" value="" style="shape=image;verticalLabelPosition=bottom;labelBackgroundColor=default;verticalAlign=top;aspect=fixed;imageAspect=0;image=data:image/png,iVBORw0KGgoAAAANSUhEUgAAAMgAAADICAYAAACtWK6eAAAAAXNSR0IArs4c6QAABtZJREFUeF7t3WGuE0cQRWGzn9lDwsoSVhbYw+yHaIgtPSUQisK0Z+p+/oGQ6HJ3nduHHj/7ed7dPBBA4JsE3mGDAALfJkAQuwOB/yFAENsDAYLYAwj0CDhBetxUhRAgSEjQ2uwRIEiPm6oQAgQJCVqbPQIE6XFTFUKAICFBa7NHgCA9bqpCCBAkJGht9ggQpMdNVQgBgoQErc0eAYL0uKkKIUCQkKC12SNAkB43VSEECBIStDZ7BAjS46YqhABBQoLWZo8AQXrcVIUQIEhI0NrsESBIj5uqEAIECQlamz0CBOlxUxVCgCAhQWuzR4AgPW6qQggQJCRobfYIEKTHTVUIAYKEBK3NHgGC9LipCiFAkJCgtdkjQJAeN1UhBAgSErQ2ewQI0uOmKoQAQUKC1maPAEF63FSFECBISNDa7BEgSI+bqhACBAkJWps9AgTpcVMVQoAgIUFrs0eAID1uqkIIECQkaG32CBCkx01VCAGChAStzR4BgvS4qQohQJCQoLXZI0CQHjdVIQQIEhK0NnsECNLjpiqEAEFCgtZmjwBBetxUhRAgSEjQ2uwRIEiPm6oQAgQJCVqbPQIE6XFTFUKAICFBa7NHgCA9bqpCCBAkJGht9ggQpMdNVQgBgoQErc0eAYL0uKkKIUCQkKC12SNAkB43VSEECBIStDZ7BAjS46YqhABBQoLWZo8AQXrcVIUQIEhI0NrsESBIj5uqEAIECQlamz0CBOlxUxVCgCAhQWuzR4AgPW6qQggQJCRobfYIjBZk27bfb7fbH3c0x989nkfg4+12+3Q83b7vfz7vac/1TCMFeSMGKdbttw8TRRknyLZtx/9mj1Nj3fYw00FgnCSjBCHHKSwdJck0QT6fYouEL2Lf9zH7akwjTo9TWfl+3/fjRfzlH5ME+et2u3lRfo4t+XHf9/fnWMrPrWKSIC6vfm4vPLV6ymUWQZ66LTzZgwBBTrYXtm1zgpwoE4KcKIxjKdu2eQ1ynkzG/Kh30iXW8QL9kMTj9QQI8voM/rsCp8g5UplyeXXQHHOC3C+znCKvd2TMeyDjBLlL4rNYr5NkzKXVA+GoE+TR1P3TvG8/6v66LZMx8/Gu+SHHiHfP30Y2UpCviPJbxj5d3uXx+yDHu+bjxBh9gizfJiYcS2D0CTI2NY0tI0CQZahNdEUCBLliata8jABBlqE20RUJEOSKqVnzMgIEWYbaRFckQJArpmbNywgQZBlqE12RAEGumJo1LyNAkGWoTXRFAgS5YmrWvIwAQZahNtEVCRDkiqlZ8zICBFmG2kRXJECQK6ZmzcsIEGQZahNdkQBBrpiaNS8jQJBlqE10RQIEuWJq1ryMAEGWoTbRFQkQ5IqpWfMyAgRZhtpEVyRAkCumZs3LCEQIcv+mxWVQUyaa/IVxjwzHCnKX4rhfuvsW/lpjPxxPv+/78Z3I4x4jBXHH25fs03FfXH1QHCeIe4S8RI7HpGPubjvyEsvJ8VI5HpOPOklGnSBu5HkKQY5FjLmJzhhBnB6nkeNYyJhLrUmCuMvteRwhyHmy+GclLq/OlciUG3lOOkE+n2uLZK+GICfL3493zxUIQc6Vx3GJ5TXIeTIZ86PeSZdY7pFOkKcTGCPI/YW6U+TpW+SHn3DM6eGjJj+cvYLvEZjy2mPkR00eTXk98r1t/Ev+/bhX+nF6jLpn+qhLrLexe2f9l0jwtSc9hPjk4+7LeD93ovvvhfidkOdi/fJxkuOPaSfGvzGNPUGevx88YyIBgiSmrucyAYKUURmYSIAgianruUyAIGVUBiYSIEhi6nouEyBIGZWBiQQIkpi6nssECFJGZWAiAYIkpq7nMgGClFEZmEiAIImp67lMgCBlVAYmEiBIYup6LhMgSBmVgYkECJKYup7LBAhSRmVgIgGCJKau5zIBgpRRGZhIgCCJqeu5TIAgZVQGJhIgSGLqei4TIEgZlYGJBAiSmLqeywQIUkZlYCIBgiSmrucyAYKUURmYSIAgianruUyAIGVUBiYSIEhi6nouEyBIGZWBiQQIkpi6nssECFJGZWAiAYIkpq7nMgGClFEZmEiAIImp67lMgCBlVAYmEiBIYup6LhMgSBmVgYkECJKYup7LBAhSRmVgIgGCJKau5zIBgpRRGZhIgCCJqeu5TIAgZVQGJhIgSGLqei4TIEgZlYGJBAiSmLqeywQIUkZlYCIBgiSmrucyAYKUURmYSIAgianruUyAIGVUBiYSIEhi6nouEyBIGZWBiQQIkpi6nssECFJGZWAiAYIkpq7nMgGClFEZmEiAIImp67lMgCBlVAYmEiBIYup6LhMgSBmVgYkECJKYup7LBP4Gn5CqyQ25vq0AAAAASUVORK5CYII=;" vertex="1" parent="1">
          <mxGeometry x="1400" y="3565" width="150" height="150" as="geometry" />
        </mxCell>
        <mxCell id="GpJZRUMAvQBcFQaBfRYF-563" value="" style="shape=image;verticalLabelPosition=bottom;labelBackgroundColor=default;verticalAlign=top;aspect=fixed;imageAspect=0;image=data:image/png,iVBORw0KGgoAAAANSUhEUgAAAMgAAADICAYAAACtWK6eAAAAAXNSR0IArs4c6QAACRJJREFUeF7tnU1220gMBqUzUfvYJ4vnZNHsyTNxTEea0Ap/uoEmuwFU3pvVEBJRH0ogZdm6XvgHAQisErjCBgIQWCeAIEwHBDYIIAjjAQEEYQYgICPABpFxoyoIAQQJEjRtygggiIwbVUEIIEiQoGlTRgBBZNyoCkIAQYIETZsyAggi40ZVEAIIEiRo2pQRQBAZN6qCEECQIEHTpowAgsi4URWEAIIECZo2ZQQQRMaNqiAEECRI0LQpI4AgMm5UBSGAIEGCpk0ZAQSRcaMqCAEECRI0bcoIIIiMG1VBCCBIkKBpU0YAQWTcqApCAEGCBE2bMgIIIuNGVRACCBIkaNqUEUAQGTeqghBAkCBB06aMAILIuFEVhACCBAmaNmUEEETGjaogBBAkSNC0KSOAIDJuVAUhgCBBgqZNGQEEkXGjKggBBAkSNG3KCCCIjBtVQQggSJCgaVNGAEFk3KgKQsCVILfb7WMht3vf9/cgeZ7a5u12e7tcLtN/839frL0wNy/IJMU4jj8WgvqW2vV6/afv+yWBTh0qD0/2YP5zp5f7g7npFyfTgnRd92tPjNcQEUWuaKIYr09gWhSTgkyr/XNrTHKI/iFJPjahHP8/0fV6fbd42WVOEK0cz8SQJF0SrRwz5uYkMSeI5LJqbRSQZF+SUnI8n2kYBlMzZ+pkS4c1hYYk65LA+3IxJUjXdeP+a17+EUjyN7Mj5LC4RcwIUureg8ut/ReQI+WwtrXNCFLy3gNJzr2ssvxWO4K8pBf5cuvozTFDfR+G4X1/l9U/wpIgh9x/LEUQUZIT5fhCbuXdLARZeZGKJMnZciDIAZvxqHewtk41giQ15Pj8eBCXWKUdOeMmPdrlViU5JswIUlqQimG6/GFiZZ5mPnJi5h5kEq7GZdbsc0RuPi5fU47Hz0EQpPQGmR6vgWDNS1KboaXLqy+ZjxjkIx+z5hax9lPg1xwakGO6XDWzPUwK0kjI5jZJI9xMyWFSkBYutaxtkkbkMPeiYlYQJEm/iEWOdFaLb/PryutWE/42f/jo59PcTXqjN57NXT4gh14O05dY8/YZhu/DAI8ycrgRhHuSPwOBHOXkcCUIktT/Qaq1d/dSVDJ/D8I9yW8CbI6Ucc8/xp0gEYcFOfIHP7XCpSCRJEGO1FGXHedWkAiSIIds6HOqXAviWRLkyBlz+bHuBfEoCXLIBz63MoQgniRBjtwR1x0fRhAPkiCHbtgl1aEEsSwJckjGW18TThCLkiCHftCljxBSEEuSIId0tMvUhRXEgiTIUWbINY8SWpCWJUEOzViXqw0vSIuSIEe5Adc+EoI8CLYylNPpjOO49x3k2tw36yP8TeJUgAgyI9WCJKnBHXUccnwniyAvkxZZEuT4+2UHQRZeiiNKghzLOxlBVq5VIkmCHOsXrAiycTEfQRLk2L6bQ5Cdu13PkiDH/lsdCLLPqIk/iJBwmlmHIEcaLgRJ4+RKEuRIDN3i94Okt1b+SA+XW8iRNxdskDxepjcJcmSGzQbJBzZVWNwkyCHLmg0i42ZKEuQQhswGkYOzskmQQ5cxG0THr+lNghzKcNkgeoCtbhLkKJMtG6QMx6Y2CXIUCpUNUg7kY5Pcx3H8UfZR8x7t83vI/+37/i2viqPXCLBBCs1GS2/9skEKhcoGKQOyJTmeHSFJmWzZIEqOLcqBJMpQZ+UIomDZshxIoggWQfTwLMiBJPqc2SAChpbkQBJBwGwQOTSLciCJPG82SAY7y3IgSUbQbJB8WB7kQJL83NkgCcw8yYEkCYGzQdIheZQDSdLzZ4NssPIsB5KkSYIgK5wiyIEk+5IgyAKjSHIgybYkCPLCJ6IcSLIuCYLM2ESWA0mWJUGQB5cW5Jg+oj6dDt8wtX9vcNYRCNLI37ma//5GK7L2ff9x1iC2+jzhBWl1GFs9r1YH+ajzCi1I60PY+vkdNZQtPW5YQawMn5XzbGmoS55LSEGsDZ218y05oLUfK5wgVofN6nnXHnDt84cSxPqQWT9/7bDWqA8jiJfh8tJHjWGXPGcIQbwNlbd+JIN7Vo17QbwOk9e+zhr81OdxLYj3IfLeX+oQH3mcW0GiDE+UPo+UYOuxXQoSbWii9XumLO4EiTosUfs+WhZXgkQfkuj9HyGLG0EYjt/jAYeymrgQhKH4PhTwKCeJeUEYhuVhgEsZSUwLwhBsDwF89JKYFYTw08KHUxqntaNMCkLoeaHDK4/X/GhzghC2LGy4ybiZEuR2u719fg/5L1mrZaosf3sskuTPgClBuq6b5HjLb7NMhWU5ngRqS2KNoRlBam8Pa8FuvSQ0IMl73/f3Mi9bxz6KJUE+av3FQU9ytLBJLPE0I0ityytLYea+llbcJPdhGN5zz7fG8ZYEGc8G5FmO2ptkGAYTs2fiJKcwu647VZAIctSUBEEKv9yfKUgkOWpJgiDlBTnlLd6IclSQhHuQwn6c8nsOkeU4WRIEsSYIcvxJ7Oh3t67XKz8HKS3IkTfqyPF3WgdKYmZ7TFTMvIs1newRoSHH+kvZQbzNbA9zgjy2SLGbdeTY3/OFJTG1PUwKUupSCzn25Sh8425ODrOCPD64+FP6yV7kSJejkCQm5TAriCK0+0MOE58kzR/jYyskL0zWX4xM3aQvxT8Lbfrfi78r8vz+cb7WuIxAKaJYF+NJyrwg88in4F5HwMrvHZQZ3fMfZcZ8Yv+1mT0xdyXI+ePBM3ongCDeE6Y/FQEEUeGj2DsBBPGeMP2pCCCICh/F3gkgiPeE6U9FAEFU+Cj2TgBBvCdMfyoCCKLCR7F3AgjiPWH6UxFAEBU+ir0TQBDvCdOfigCCqPBR7J0AgnhPmP5UBBBEhY9i7wQQxHvC9KcigCAqfBR7J4Ag3hOmPxUBBFHho9g7AQTxnjD9qQggiAofxd4JIIj3hOlPRQBBVPgo9k4AQbwnTH8qAgiiwkexdwII4j1h+lMRQBAVPoq9E0AQ7wnTn4oAgqjwUeydAIJ4T5j+VAQQRIWPYu8EEMR7wvSnIoAgKnwUeyeAIN4Tpj8VAQRR4aPYOwEE8Z4w/akIIIgKH8XeCSCI94TpT0UAQVT4KPZOAEG8J0x/KgIIosJHsXcC/wGTS/QUNGFPSAAAAABJRU5ErkJggg==;" vertex="1" parent="1">
          <mxGeometry x="1735" y="3614.5" width="91" height="91" as="geometry" />
        </mxCell>
        <mxCell id="GpJZRUMAvQBcFQaBfRYF-564" value="&lt;span style=&quot;font-size: 15px;&quot;&gt;0&lt;/span&gt;" style="rounded=1;whiteSpace=wrap;html=1;fillColor=#fff2cc;strokeColor=#000000;strokeWidth=2;" vertex="1" parent="1">
          <mxGeometry x="2233.5" y="3590" width="80" height="70" as="geometry" />
        </mxCell>
        <mxCell id="GpJZRUMAvQBcFQaBfRYF-565" value="&lt;span style=&quot;font-size: 15px;&quot;&gt;1&lt;/span&gt;" style="rounded=1;whiteSpace=wrap;html=1;fillColor=#79D8CE;strokeColor=#000000;strokeWidth=2;" vertex="1" parent="1">
          <mxGeometry x="2233.5" y="3500" width="80" height="70" as="geometry" />
        </mxCell>
        <mxCell id="GpJZRUMAvQBcFQaBfRYF-566" value="&lt;span style=&quot;font-size: 15px;&quot;&gt;0&lt;/span&gt;" style="rounded=1;whiteSpace=wrap;html=1;fillColor=#fff2cc;strokeColor=#000000;strokeWidth=2;" vertex="1" parent="1">
          <mxGeometry x="2137.5" y="3590" width="80" height="70" as="geometry" />
        </mxCell>
        <mxCell id="GpJZRUMAvQBcFQaBfRYF-567" value="&lt;span style=&quot;font-size: 15px;&quot;&gt;1&lt;/span&gt;" style="rounded=1;whiteSpace=wrap;html=1;fillColor=#fff2cc;strokeColor=#000000;strokeWidth=2;" vertex="1" parent="1">
          <mxGeometry x="2137.5" y="3500" width="80" height="70" as="geometry" />
        </mxCell>
        <mxCell id="GpJZRUMAvQBcFQaBfRYF-568" value="&lt;span style=&quot;font-size: 15px;&quot;&gt;0&lt;/span&gt;" style="rounded=1;whiteSpace=wrap;html=1;fillColor=#79D8CE;strokeColor=#000000;strokeWidth=2;" vertex="1" parent="1">
          <mxGeometry x="2039.5" y="3590" width="80" height="70" as="geometry" />
        </mxCell>
        <mxCell id="GpJZRUMAvQBcFQaBfRYF-569" value="&lt;span style=&quot;font-size: 15px;&quot;&gt;1&lt;/span&gt;" style="rounded=1;whiteSpace=wrap;html=1;fillColor=#fff2cc;strokeColor=#000000;strokeWidth=2;" vertex="1" parent="1">
          <mxGeometry x="2039.5" y="3500" width="80" height="70" as="geometry" />
        </mxCell>
        <mxCell id="GpJZRUMAvQBcFQaBfRYF-570" value="&lt;span style=&quot;font-size: 15px;&quot;&gt;0&lt;/span&gt;" style="rounded=1;whiteSpace=wrap;html=1;fillColor=#fff2cc;strokeColor=#000000;strokeWidth=2;" vertex="1" parent="1">
          <mxGeometry x="1943.5" y="3590" width="80" height="70" as="geometry" />
        </mxCell>
        <mxCell id="GpJZRUMAvQBcFQaBfRYF-571" value="&lt;span style=&quot;font-size: 15px;&quot;&gt;1&lt;/span&gt;" style="rounded=1;whiteSpace=wrap;html=1;fillColor=#fff2cc;strokeColor=#000000;strokeWidth=2;" vertex="1" parent="1">
          <mxGeometry x="1943.5" y="3500" width="80" height="70" as="geometry" />
        </mxCell>
        <mxCell id="GpJZRUMAvQBcFQaBfRYF-572" value="A" style="text;html=1;strokeColor=none;fillColor=none;align=center;verticalAlign=middle;whiteSpace=wrap;rounded=0;fontSize=25;fontStyle=1" vertex="1" parent="1">
          <mxGeometry x="1843.5" y="3660" width="60" height="30" as="geometry" />
        </mxCell>
        <mxCell id="GpJZRUMAvQBcFQaBfRYF-573" value="-1" style="text;html=1;strokeColor=none;fillColor=none;align=center;verticalAlign=middle;whiteSpace=wrap;rounded=0;fontSize=25;fontStyle=1" vertex="1" parent="1">
          <mxGeometry x="1863.5" y="3650" width="60" height="30" as="geometry" />
        </mxCell>
        <mxCell id="GpJZRUMAvQBcFQaBfRYF-574" value="&lt;span style=&quot;font-size: 15px;&quot;&gt;0&lt;/span&gt;" style="rounded=1;whiteSpace=wrap;html=1;fillColor=#fff2cc;strokeColor=#000000;strokeWidth=2;" vertex="1" parent="1">
          <mxGeometry x="2233.5" y="3770" width="80" height="70" as="geometry" />
        </mxCell>
        <mxCell id="GpJZRUMAvQBcFQaBfRYF-575" value="&lt;span style=&quot;font-size: 15px;&quot;&gt;1&lt;/span&gt;" style="rounded=1;whiteSpace=wrap;html=1;fillColor=#79D8CE;strokeColor=#000000;strokeWidth=2;" vertex="1" parent="1">
          <mxGeometry x="2233.5" y="3680" width="80" height="70" as="geometry" />
        </mxCell>
        <mxCell id="GpJZRUMAvQBcFQaBfRYF-576" value="&lt;span style=&quot;font-size: 15px;&quot;&gt;1&lt;/span&gt;" style="rounded=1;whiteSpace=wrap;html=1;fillColor=#fff2cc;strokeColor=#000000;strokeWidth=2;" vertex="1" parent="1">
          <mxGeometry x="2137.5" y="3770" width="80" height="70" as="geometry" />
        </mxCell>
        <mxCell id="GpJZRUMAvQBcFQaBfRYF-577" value="&lt;span style=&quot;font-size: 15px;&quot;&gt;1&lt;/span&gt;" style="rounded=1;whiteSpace=wrap;html=1;fillColor=#fff2cc;strokeColor=#000000;strokeWidth=2;" vertex="1" parent="1">
          <mxGeometry x="2137.5" y="3680" width="80" height="70" as="geometry" />
        </mxCell>
        <mxCell id="GpJZRUMAvQBcFQaBfRYF-578" value="&lt;span style=&quot;font-size: 15px;&quot;&gt;0&lt;/span&gt;" style="rounded=1;whiteSpace=wrap;html=1;fillColor=#fff2cc;strokeColor=#000000;strokeWidth=2;" vertex="1" parent="1">
          <mxGeometry x="2039.5" y="3770" width="80" height="70" as="geometry" />
        </mxCell>
        <mxCell id="GpJZRUMAvQBcFQaBfRYF-579" value="&lt;span style=&quot;font-size: 15px;&quot;&gt;1&lt;/span&gt;" style="rounded=1;whiteSpace=wrap;html=1;fillColor=#79D8CE;strokeColor=#000000;strokeWidth=2;" vertex="1" parent="1">
          <mxGeometry x="2039.5" y="3680" width="80" height="70" as="geometry" />
        </mxCell>
        <mxCell id="GpJZRUMAvQBcFQaBfRYF-580" value="&lt;span style=&quot;font-size: 15px;&quot;&gt;0&lt;/span&gt;" style="rounded=1;whiteSpace=wrap;html=1;fillColor=#fff2cc;strokeColor=#000000;strokeWidth=2;" vertex="1" parent="1">
          <mxGeometry x="1943.5" y="3770" width="80" height="70" as="geometry" />
        </mxCell>
        <mxCell id="GpJZRUMAvQBcFQaBfRYF-581" value="&lt;span style=&quot;font-size: 15px;&quot;&gt;0&lt;/span&gt;" style="rounded=1;whiteSpace=wrap;html=1;fillColor=#fff2cc;strokeColor=#000000;strokeWidth=2;" vertex="1" parent="1">
          <mxGeometry x="1943.5" y="3680" width="80" height="70" as="geometry" />
        </mxCell>
      </root>
    </mxGraphModel>
  </diagram>
</mxfile>
